<svg width="17" height="28" viewBox="0 0 17 28" fill="none" xmlns="http://www.w3.org/2000/svg">
<path d="M9.95888 27.9456H5.40985C4.65002 27.9456 4.03192 27.3493 4.03192 26.6162V16.7171H1.37793C0.618095 16.7171 0 16.1205 0 15.3877V11.1459C0 10.4128 0.618095 9.81649 1.37793 9.81649H4.03192V7.69234C4.03192 5.58618 4.71742 3.79428 6.01408 2.51068C7.31659 1.22122 9.13685 0.539795 11.2781 0.539795L14.7474 0.545231C15.5059 0.546486 16.1229 1.14281 16.1229 1.87462V5.81304C16.1229 6.54611 15.5051 7.14244 14.7454 7.14244L12.4096 7.14327C11.6972 7.14327 11.5158 7.28106 11.477 7.3233C11.4131 7.39334 11.337 7.59135 11.337 8.13812V9.81628H14.5699C14.8133 9.81628 15.0491 9.8742 15.2517 9.98334C15.6888 10.219 15.9606 10.6646 15.9606 11.1461L15.9589 15.3879C15.9589 16.1205 15.3408 16.7169 14.5809 16.7169H11.337V26.6162C11.337 27.3493 10.7187 27.9456 9.95888 27.9456ZM5.69723 26.339H9.6715V15.9978C9.6715 15.5083 10.0844 15.1102 10.5915 15.1102H14.2936L14.2951 11.4231H10.5913C10.0841 11.4231 9.6715 11.025 9.6715 10.5355V8.13812C9.6715 7.51043 9.73761 6.7966 10.2287 6.26008C10.8221 5.61148 11.7573 5.53663 12.4092 5.53663L14.4576 5.53579V2.15146L11.2768 2.14644C7.83564 2.14644 5.69723 4.27163 5.69723 7.69234V10.5355C5.69723 11.0248 5.28459 11.4231 4.77745 11.4231H1.6653V15.1102H4.77745C5.28459 15.1102 5.69723 15.5083 5.69723 15.9978V26.339ZM14.7441 2.15188H14.7444H14.7441Z" fill="#F9F3F3"/>
</svg>
