<svg width="31" height="30" viewBox="0 0 31 30" fill="none" xmlns="http://www.w3.org/2000/svg">
<path d="M22.243 0.866211H8.7404C4.34586 0.866211 0.770752 4.30103 0.770752 8.52313V21.4961C0.770752 25.7179 4.34586 29.1528 8.7404 29.1528H22.2432C26.6375 29.1528 30.2126 25.7179 30.2126 21.4961V8.52313C30.2126 4.30103 26.6375 0.866211 22.243 0.866211V0.866211ZM28.4866 21.4961C28.4866 24.8036 25.6858 27.4945 22.243 27.4945H8.7404C5.29759 27.4945 2.49676 24.8036 2.49676 21.4961V8.52313C2.49676 5.21542 5.29759 2.52449 8.7404 2.52449H22.2432C25.6858 2.52449 28.4866 5.21542 28.4866 8.52313V21.4961Z" fill="#F9F3F3"/>
<path d="M15.4917 7.27515C11.0527 7.27515 7.44141 10.7447 7.44141 15.0095C7.44141 19.2744 11.0527 22.7439 15.4917 22.7439C19.9307 22.7439 23.542 19.2744 23.542 15.0095C23.542 10.7447 19.9307 7.27515 15.4917 7.27515ZM15.4917 21.0856C12.0046 21.0856 9.16741 18.36 9.16741 15.0095C9.16741 11.6593 12.0046 8.93343 15.4917 8.93343C18.979 8.93343 21.816 11.6593 21.816 15.0095C21.816 18.36 18.979 21.0856 15.4917 21.0856Z" fill="#F9F3F3"/>
<path d="M23.7345 4.52832C22.4227 4.52832 21.3557 5.55363 21.3557 6.81375C21.3557 8.07408 22.4227 9.09939 23.7345 9.09939C25.0463 9.09939 26.1135 8.07408 26.1135 6.81375C26.1135 5.55342 25.0463 4.52832 23.7345 4.52832ZM23.7345 7.44089C23.3746 7.44089 23.0817 7.15948 23.0817 6.81375C23.0817 6.46781 23.3746 6.18661 23.7345 6.18661C24.0945 6.18661 24.3875 6.46781 24.3875 6.81375C24.3875 7.15948 24.0945 7.44089 23.7345 7.44089Z" fill="#F9F3F3"/>
</svg>
