<svg width="37" height="31" viewBox="0 0 37 31" fill="none" xmlns="http://www.w3.org/2000/svg">
<path d="M36.4369 1.35109C35.9916 0.827862 35.3246 0.539795 34.5587 0.539795C34.1423 0.539795 33.7012 0.62397 33.2478 0.790451L2.38837 12.1082C0.750693 12.7086 0.53013 13.6097 0.544315 14.0934C0.5585 14.5771 0.831909 15.4648 2.50241 15.9754C2.51242 15.9784 2.52243 15.9813 2.53245 15.984L8.93352 17.7439L12.3952 27.2544C12.8672 28.551 13.9267 29.3564 15.1605 29.3564C15.9384 29.3564 16.7036 29.0432 17.3733 28.4511L21.3326 24.9485L27.0754 29.3911C27.0759 29.3917 27.0767 29.3919 27.0773 29.3925L27.1318 29.4347C27.1368 29.4384 27.1421 29.4425 27.1471 29.4462C27.7854 29.9219 28.4822 30.173 29.1628 30.1733H29.1631C30.4928 30.1733 31.5517 29.2276 31.8602 27.7643L36.9164 3.77721C37.1195 2.8144 36.9493 1.95287 36.4369 1.35109ZM11.0749 17.4096L23.4245 11.3482L15.7348 19.1984C15.6088 19.327 15.5195 19.4844 15.4756 19.6556L13.9928 25.4261L11.0749 17.4096ZM15.9262 26.9412C15.875 26.9864 15.8236 27.0267 15.7721 27.0639L17.1478 21.7109L19.6502 23.6469L15.9262 26.9412ZM34.8229 3.36969L29.7666 27.357C29.7179 27.5866 29.5625 28.1208 29.1628 28.1208C28.9653 28.1208 28.7172 28.0173 28.4633 27.8295L21.9559 22.7955C21.9551 22.7947 21.954 22.7939 21.9529 22.7934L18.0809 19.7978L29.2012 8.44534C29.5572 8.08192 29.5894 7.52529 29.2777 7.12606C28.9656 6.72683 28.4001 6.60123 27.9376 6.82837L9.64777 15.8055L3.15965 14.022L34.0096 2.70778C34.2702 2.61212 34.4521 2.59207 34.5587 2.59207C34.624 2.59207 34.7403 2.59956 34.7834 2.6506C34.8401 2.71713 34.9124 2.94401 34.8229 3.36969Z" fill="#F9F3F3"/>
</svg>
