<svg width="32" height="33" viewBox="0 0 32 33" fill="none" xmlns="http://www.w3.org/2000/svg">
<path d="M31.3009 11.8463C31.3012 8.83764 30.0483 6.00155 27.7734 3.8603C25.4986 1.71906 22.4855 0.539795 19.2888 0.539795H12.1715C12.1713 0.539795 12.1713 0.539795 12.1713 0.539795C8.97512 0.539795 5.96177 1.71906 3.68716 3.86006C1.41228 6.00155 0.159424 8.83764 0.159424 11.8463V17.1123C0.159424 19.4424 0.914514 21.6837 2.34316 23.5942C3.60355 25.2796 5.2986 26.5962 7.27487 27.4309V30.4556C7.27487 32.0196 8.20523 32.5747 9.00187 32.5747C9.57104 32.5747 10.1402 32.3102 10.6943 31.7889L14.2745 28.419L19.2891 28.4188C22.4855 28.4188 25.4986 27.2395 27.7734 25.0985C30.0483 22.9573 31.3012 20.1209 31.3012 17.1123L31.3009 11.8463ZM19.2891 26.5417L13.8617 26.542C13.5971 26.542 13.3436 26.6407 13.1567 26.8167L9.28438 30.4615C9.27944 30.4664 9.27425 30.471 9.26906 30.4757C9.26906 30.4691 9.26906 30.4622 9.26906 30.4556V26.8045C9.26906 26.4151 9.01381 26.0664 8.62744 25.9275C4.7554 24.5369 2.15387 20.9942 2.15387 17.1123V11.8463C2.15387 9.33892 3.19926 6.97404 5.09737 5.18719C6.99548 3.40082 9.50768 2.41684 12.1715 2.41684H19.2888C21.9526 2.41684 24.4651 3.40082 26.3632 5.18743C28.2616 6.97429 29.307 9.33916 29.3067 11.8463L29.307 17.1123C29.3067 22.3118 24.8128 26.5417 19.2891 26.5417Z" fill="#F9F3F3"/>
<path d="M18.3818 15.8902C17.9926 15.5236 17.3614 15.5236 16.9719 15.8902L16.1664 16.6481L13.0453 13.7105L13.8508 12.9526C14.0377 12.7767 14.1429 12.5379 14.1429 12.2888C14.1429 12.04 14.0377 11.8012 13.8508 11.6253L10.0748 8.0711C9.88783 7.89513 9.63441 7.79614 9.36981 7.79614C9.10548 7.79614 8.85179 7.89513 8.66484 8.0711L6.0215 10.5592C4.59207 11.9046 4.59207 14.0943 6.02176 15.4405L14.3285 23.2598C15.0192 23.9096 15.9402 24.2674 16.9215 24.2674C17.903 24.2674 18.824 23.9096 19.5147 23.2598L22.1581 20.7719C22.345 20.5957 22.4502 20.3572 22.4502 20.1081C22.4502 19.8593 22.345 19.6205 22.1581 19.4446L18.3818 15.8902ZM18.1045 21.9321C17.7906 22.2276 17.3704 22.3904 16.9215 22.3904C16.4725 22.3904 16.0524 22.2276 15.7385 21.9321L7.43197 14.1131C6.77971 13.4991 6.77945 12.5 7.43171 11.8863L9.36981 10.0618L11.7356 12.2888L10.9301 13.0467C10.7432 13.2227 10.638 13.4615 10.638 13.7103C10.638 13.9593 10.7432 14.1979 10.9301 14.3741L15.4612 18.639C15.8507 19.0054 16.4819 19.0056 16.8714 18.639L17.6768 17.8811L20.0426 20.1079L18.1045 21.9321Z" fill="#F9F3F3"/>
<path d="M15.9722 4.69165C15.4215 4.69165 14.9751 5.11179 14.9751 5.63017C14.9751 6.14832 15.4215 6.5687 15.9722 6.5687C18.2541 6.5687 20.3997 7.40506 22.0132 8.92405C23.627 10.4428 24.5155 12.4621 24.5155 14.6102C24.5155 15.1283 24.9619 15.5487 25.5126 15.5487C26.0631 15.5487 26.5097 15.1286 26.5097 14.6102C26.5097 11.9608 25.4137 9.47006 23.4234 7.59667C21.4331 5.72329 18.7869 4.69165 15.9722 4.69165Z" fill="#F9F3F3"/>
<path d="M20.2436 14.6099C20.2436 15.1281 20.6902 15.5484 21.2407 15.5484C21.7914 15.5484 22.2378 15.1281 22.2378 14.6099C22.2378 11.3581 19.427 8.71265 15.9722 8.71265C15.4215 8.71265 14.9751 9.13278 14.9751 9.65117C14.9751 10.1696 15.4215 10.5897 15.9722 10.5897C18.3276 10.5897 20.2436 12.3932 20.2436 14.6099Z" fill="#F9F3F3"/>
</svg>
