<svg width="23" height="37" viewBox="0 0 23 37" fill="none" xmlns="http://www.w3.org/2000/svg">
<path d="M13.9235 36.056H7.56353C6.50121 36.056 5.63705 35.2903 5.63705 34.3489V21.6377H1.92649C0.864161 21.6377 0 20.8717 0 19.9306V14.4838C0 13.5425 0.864161 12.7768 1.92649 12.7768H5.63705V10.0492C5.63705 7.34477 6.59544 5.04384 8.4083 3.3956C10.2293 1.73984 12.7743 0.864838 15.7679 0.864838L20.6184 0.871818C21.6789 0.873429 22.5415 1.63915 22.5415 2.57886V7.63608C22.5415 8.5774 21.6777 9.34312 20.6156 9.34312L17.3499 9.3442C16.3539 9.3442 16.1003 9.52113 16.0461 9.57537C15.9567 9.66531 15.8503 9.91957 15.8503 10.6217V12.7765H20.3702C20.7105 12.7765 21.0402 12.8509 21.3235 12.9911C21.9346 13.2936 22.3146 13.8658 22.3146 14.4841L22.3122 19.9309C22.3122 20.8717 21.448 21.6374 20.3857 21.6374H15.8503V34.3489C15.8503 35.2903 14.9859 36.056 13.9235 36.056ZM7.96532 33.9929H13.5218V20.7141C13.5218 20.0856 14.099 19.5744 14.808 19.5744H19.9839L19.986 14.8399H14.8077C14.0987 14.8399 13.5218 14.3287 13.5218 13.7001V10.6217C13.5218 9.81566 13.6142 8.89905 14.3008 8.21011C15.1304 7.37726 16.4379 7.28114 17.3493 7.28114L20.2133 7.28007V2.93434L15.7661 2.92789C10.955 2.92789 7.96532 5.6568 7.96532 10.0492V13.7001C7.96532 14.3284 7.3884 14.8399 6.67938 14.8399H2.32827V19.5744H6.67938C7.3884 19.5744 7.96532 20.0856 7.96532 20.7141V33.9929ZM20.6138 2.93487H20.6141H20.6138Z" fill="#421A18"/>
</svg>
