<svg width="45" height="42" viewBox="0 0 45 42" fill="none" xmlns="http://www.w3.org/2000/svg">
<path d="M44.3496 15.3832C44.3499 11.5199 42.5983 7.87814 39.4178 5.12862C36.2373 2.3791 32.0247 0.864838 27.5554 0.864838H17.6047C17.6044 0.864838 17.6044 0.864838 17.6044 0.864838C13.1358 0.864838 8.92283 2.3791 5.74268 5.1283C2.56217 7.87814 0.810547 11.5199 0.810547 15.3832V22.1451C0.810547 25.1373 1.86624 28.0151 3.86364 30.4684C5.62579 32.6326 7.99565 34.3232 10.7587 35.395V39.279C10.7587 41.2873 12.0594 42 13.1732 42C13.969 42 14.7647 41.6604 15.5394 40.991L20.5449 36.6638L27.5558 36.6635C32.0247 36.6635 36.2373 35.1493 39.4178 32.4001C42.5983 29.6505 44.3499 26.0085 44.3499 22.1451L44.3496 15.3832ZM27.5558 34.2533L19.9677 34.2536C19.5978 34.2536 19.2434 34.3804 18.9821 34.6063L13.5682 39.2866C13.5613 39.2928 13.554 39.2988 13.5468 39.3048C13.5468 39.2963 13.5468 39.2875 13.5468 39.279V34.5906C13.5468 34.0907 13.1899 33.6429 12.6497 33.4646C7.23619 31.6789 3.59899 27.1298 3.59899 22.1451V15.3832C3.59899 12.1636 5.06055 9.12689 7.7143 6.83244C10.3681 4.53861 13.8804 3.2751 17.6047 3.2751H27.5554C31.2797 3.2751 34.7924 4.53861 37.4462 6.83275C40.1003 9.12721 41.5618 12.1639 41.5615 15.3832L41.5618 22.1451C41.5615 28.8217 35.2785 34.2533 27.5558 34.2533Z" fill="#421A18"/>
<path d="M26.2874 20.5756C25.7432 20.1049 24.8607 20.1049 24.3161 20.5756L23.19 21.5488L18.8264 17.7768L19.9525 16.8036C20.2139 16.5777 20.3609 16.2711 20.3609 15.9513C20.3609 15.6318 20.2139 15.3252 19.9525 15.0992L14.6733 10.5354C14.4119 10.3094 14.0576 10.1823 13.6877 10.1823C13.3181 10.1823 12.9634 10.3094 12.702 10.5354L9.00639 13.7302C7.0079 15.4579 7.0079 18.2696 9.00675 19.9982L20.6205 30.0388C21.5861 30.8732 22.8738 31.3327 24.2457 31.3327C25.618 31.3327 26.9056 30.8732 27.8713 30.0388L31.567 26.8442C31.8283 26.6179 31.9754 26.3116 31.9754 25.9918C31.9754 25.6723 31.8283 25.3657 31.567 25.1398L26.2874 20.5756ZM25.8997 28.334C25.4608 28.7134 24.8734 28.9224 24.2457 28.9224C23.618 28.9224 23.0306 28.7134 22.5917 28.334L10.9784 18.2937C10.0664 17.5054 10.0661 16.2224 10.978 15.4344L13.6877 13.0916L16.9953 15.9513L15.8691 16.9245C15.6077 17.1504 15.4607 17.457 15.4607 17.7765C15.4607 18.0963 15.6077 18.4026 15.8691 18.6289L22.204 24.1054C22.7486 24.5758 23.6311 24.5761 24.1756 24.1054L25.3018 23.1322L28.6093 25.9915L25.8997 28.334Z" fill="#421A18"/>
<path d="M22.9185 6.19595C22.1485 6.19595 21.5244 6.73544 21.5244 7.40109C21.5244 8.06642 22.1485 8.60622 22.9185 8.60622C26.1088 8.60622 29.1085 9.68017 31.3644 11.6307C33.6206 13.5809 34.8629 16.1738 34.8629 18.9321C34.8629 19.5974 35.487 20.1372 36.257 20.1372C37.0266 20.1372 37.651 19.5977 37.651 18.9321C37.651 15.5301 36.1186 12.3318 33.336 9.92622C30.5534 7.52066 26.8537 6.19595 22.9185 6.19595Z" fill="#421A18"/>
<path d="M28.8903 18.9318C28.8903 19.5971 29.5148 20.1369 30.2844 20.1369C31.0544 20.1369 31.6784 19.5971 31.6784 18.9318C31.6784 14.7562 27.7486 11.3592 22.9185 11.3592C22.1485 11.3592 21.5244 11.8987 21.5244 12.5644C21.5244 13.23 22.1485 13.7695 22.9185 13.7695C26.2115 13.7695 28.8903 16.0853 28.8903 18.9318Z" fill="#421A18"/>
</svg>
