<svg width="51" height="39" viewBox="0 0 51 39" fill="none" xmlns="http://www.w3.org/2000/svg">
<path d="M50.2127 1.9066C49.5901 1.23474 48.6576 0.864838 47.5867 0.864838C47.0046 0.864838 46.3878 0.972925 45.754 1.1867L2.60931 15.7195C0.31967 16.4905 0.011299 17.6476 0.0311312 18.2687C0.0509633 18.8897 0.433218 20.0296 2.76875 20.6854C2.78275 20.6891 2.79675 20.6929 2.81074 20.6963L11.7601 22.9562L16.5999 35.1684C17.2598 36.8333 18.741 37.8675 20.466 37.8675C21.5537 37.8675 22.6235 37.4654 23.5599 36.705L29.0954 32.2075L37.1243 37.9121C37.125 37.9128 37.1262 37.9132 37.127 37.9139L37.2032 37.9681C37.2102 37.9729 37.2176 37.978 37.2246 37.9828C38.117 38.5936 39.0912 38.9161 40.0427 38.9165H40.0431C41.9023 38.9165 43.3827 37.7021 43.8139 35.8231L50.8831 5.02192C51.167 3.78561 50.929 2.67934 50.2127 1.9066ZM14.754 22.527L32.02 14.7436L21.269 24.8239C21.0929 24.989 20.9681 25.1911 20.9066 25.411L18.8336 32.8207L14.754 22.527ZM21.5366 34.7663C21.465 34.8243 21.3931 34.8761 21.3212 34.9238L23.2445 28.0501L26.7431 30.5361L21.5366 34.7663ZM47.9561 4.49864L40.8869 35.3002C40.8189 35.5949 40.6015 36.2809 40.0427 36.2809C39.7666 36.2809 39.4197 36.1481 39.0647 35.9069L29.9668 29.4429C29.9656 29.4418 29.9641 29.4408 29.9625 29.4401L24.5491 25.5936L40.0964 11.0162C40.5941 10.5495 40.6392 9.83474 40.2033 9.3221C39.767 8.80945 38.9764 8.64818 38.3298 8.93984L12.7587 20.4671L3.68764 18.177L46.8191 3.64869C47.1835 3.52585 47.4378 3.50012 47.5867 3.50012C47.6781 3.50012 47.8406 3.50973 47.9009 3.57526C47.9802 3.6607 48.0813 3.95203 47.9561 4.49864Z" fill="#421A18"/>
</svg>
