<svg width="42" height="37" viewBox="0 0 42 37" fill="none" xmlns="http://www.w3.org/2000/svg">
<path d="M30.6051 0H11.7271C5.58309 0 0.584717 4.41057 0.584717 9.83205V26.4903C0.584717 31.9115 5.58309 36.3221 11.7271 36.3221H30.6054C36.7491 36.3221 41.7475 31.9115 41.7475 26.4903V9.83205C41.7475 4.41057 36.7491 0 30.6051 0V0ZM39.3344 26.4903C39.3344 30.7374 35.4185 34.1927 30.6051 34.1927H11.7271C6.91371 34.1927 2.99786 30.7374 2.99786 26.4903V9.83205C2.99786 5.58471 6.91371 2.12935 11.7271 2.12935H30.6054C35.4185 2.12935 39.3344 5.58471 39.3344 9.83205V26.4903Z" fill="#421A18"/>
<path d="M21.1663 8.22948C14.9601 8.22948 9.91113 12.6847 9.91113 18.161C9.91113 23.6374 14.9601 28.0926 21.1663 28.0926C27.3724 28.0926 32.4214 23.6374 32.4214 18.161C32.4214 12.6847 27.3724 8.22948 21.1663 8.22948ZM21.1663 25.9632C16.291 25.9632 12.3243 22.4632 12.3243 18.161C12.3243 13.8591 16.291 10.3588 21.1663 10.3588C26.0418 10.3588 30.0082 13.8591 30.0082 18.161C30.0082 22.4632 26.0418 25.9632 21.1663 25.9632Z" fill="#421A18"/>
<path d="M32.6903 4.70238C30.8562 4.70238 29.3645 6.01896 29.3645 7.63704C29.3645 9.2554 30.8562 10.572 32.6903 10.572C34.5243 10.572 36.0163 9.2554 36.0163 7.63704C36.0163 6.01868 34.5243 4.70238 32.6903 4.70238ZM32.6903 8.44234C32.1872 8.44234 31.7776 8.08098 31.7776 7.63704C31.7776 7.19282 32.1872 6.83174 32.6903 6.83174C33.1937 6.83174 33.6032 7.19282 33.6032 7.63704C33.6032 8.08098 33.1937 8.44234 32.6903 8.44234Z" fill="#421A18"/>
</svg>
