<svg width="27" height="27" viewBox="0 0 27 27" fill="none" xmlns="http://www.w3.org/2000/svg">
<path d="M26.995 10.3219C26.9922 10.2909 26.9861 10.2602 26.9766 10.2306C26.9704 10.204 26.9618 10.1781 26.9509 10.1531C26.9383 10.1287 26.9232 10.1056 26.9059 10.0843C26.8886 10.0589 26.8685 10.0355 26.8461 10.0145C26.8389 10.0082 26.8357 9.99961 26.8281 9.99334L22.5002 6.63208V3.14843C22.5002 2.40282 21.8957 1.79834 21.1501 1.79834H16.2731L14.3204 0.282174C13.838 -0.0940581 13.1615 -0.0940581 12.6791 0.282174L10.7259 1.79834H5.84895C5.10334 1.79834 4.49886 2.40277 4.49886 3.14843V6.63214L0.172295 9.99339C0.164648 9.99972 0.161484 10.0083 0.154311 10.0145C0.131898 10.0355 0.111804 10.0589 0.0944536 10.0843C0.0771556 10.1057 0.0620725 10.1287 0.0494682 10.1532C0.0385514 10.1781 0.0300079 10.2041 0.0238375 10.2306C0.0144502 10.2599 0.00827985 10.29 0.00537927 10.3206C0.00537927 10.3301 0 10.3382 0 10.3476V25.6499C0.000632855 25.9362 0.0932407 26.2146 0.264164 26.4442C0.266854 26.4483 0.267329 26.4532 0.27044 26.4568C0.273604 26.4604 0.280355 26.4644 0.284838 26.4694C0.537663 26.8021 0.930877 26.9982 1.34872 27H25.6504C26.0698 26.9987 26.4647 26.8017 26.7178 26.4672C26.7214 26.4627 26.7268 26.4613 26.73 26.4569C26.7331 26.4524 26.7335 26.4483 26.7363 26.4442C26.9072 26.2146 26.9998 25.9362 27.0004 25.65V10.3489C27.0004 10.3395 26.9955 10.3313 26.995 10.3219ZM13.2295 0.99229C13.3866 0.867407 13.6092 0.867407 13.7663 0.99229L14.8045 1.79828H12.1944L13.2295 0.99229ZM1.46211 26.1L13.2295 16.9594C13.3868 16.8347 13.6092 16.8347 13.7664 16.9594L25.5369 26.1H1.46211ZM26.1004 25.3983L14.3204 16.2492C13.8379 15.8733 13.1616 15.8733 12.6791 16.2492L0.898654 25.3983V11.0343L8.27331 16.7609C8.46982 16.9133 8.7526 16.8775 8.90496 16.681C9.05732 16.4845 9.02156 16.2018 8.82506 16.0494L1.33295 10.2319L4.49891 7.77154V11.2489C4.49891 11.4975 4.70043 11.6989 4.94893 11.6989C5.19748 11.6989 5.39894 11.4974 5.39894 11.2489V3.14838C5.39894 2.89982 5.6004 2.69836 5.84895 2.69836H21.15C21.3985 2.69836 21.6 2.89982 21.6 3.14838V11.2489C21.6 11.4975 21.8014 11.6989 22.05 11.6989C22.2985 11.6989 22.5 11.4974 22.5 11.2489V7.77154L25.666 10.2319L18.1608 16.0598C18.0317 16.1576 17.9651 16.3173 17.9865 16.4779C18.0079 16.6385 18.114 16.7752 18.2643 16.8358C18.4145 16.8964 18.5857 16.8716 18.7126 16.7708L26.1003 11.0343V25.3983H26.1004Z" fill="#F9F3F3"/>
<path d="M18.8998 10.7989V8.99875C18.8998 6.01621 16.482 3.59839 13.4995 3.59839C10.5169 3.59839 8.09912 6.01621 8.09912 8.99875C8.09912 11.9813 10.5169 14.3991 13.4995 14.3991C13.748 14.3991 13.9495 14.1977 13.9495 13.9491C13.9495 13.7006 13.748 13.4991 13.4995 13.4991C11.0141 13.4991 8.9992 11.4842 8.9992 8.99881C8.9992 6.51337 11.0141 4.49852 13.4995 4.49852C15.9849 4.49852 17.9998 6.51337 17.9998 8.99881V10.7989C17.9998 11.296 17.5968 11.699 17.0997 11.699C16.6026 11.699 16.1996 11.296 16.1996 10.7989V8.99881C16.1996 8.75025 15.9982 8.54879 15.7496 8.54879C15.501 8.54879 15.2996 8.75025 15.2996 8.99881C15.2996 9.99297 14.4936 10.7989 13.4995 10.7989C12.5053 10.7989 11.6994 9.99297 11.6994 8.99881C11.6994 8.00464 12.5053 7.1987 13.4995 7.1987C13.748 7.1987 13.9495 6.99724 13.9495 6.74869C13.9495 6.50013 13.748 6.29868 13.4995 6.29868C12.291 6.29599 11.2278 7.0966 10.8967 8.25884C10.5655 9.42108 11.0468 10.6618 12.0752 11.2966C13.1036 11.9314 14.4285 11.8055 15.3189 10.9884C15.4169 11.9402 16.2441 12.6478 17.1995 12.5972C18.155 12.5466 18.9028 11.7556 18.8998 10.7989Z" fill="#F9F3F3"/>
</svg>
