<svg width="26" height="37" viewBox="0 0 26 37" fill="none" xmlns="http://www.w3.org/2000/svg">
<path d="M13 0C5.8318 0 0 5.80902 0 12.9492C0 15.3617 0.670873 17.716 1.94054 19.7585L12.26 36.3232C12.4577 36.6405 12.8059 36.8333 13.1805 36.8333C13.1834 36.8333 13.1862 36.8333 13.1891 36.8333C13.5669 36.8304 13.9159 36.6316 14.1099 36.3088L24.1664 19.5835C25.366 17.5842 26 15.2901 26 12.9492C26 5.80902 20.1682 0 13 0ZM22.307 18.4755L13.1641 33.6814L3.78206 18.6214C2.72523 16.9213 2.15222 14.9599 2.15222 12.9492C2.15222 6.99905 7.0265 2.14382 13 2.14382C18.9735 2.14382 23.8406 6.99905 23.8406 12.9492C23.8406 14.9003 23.3053 16.8115 22.307 18.4755Z" fill="#F9F3F3"/>
<path d="M13 6.47461C9.4159 6.47461 6.5 9.37912 6.5 12.9492C6.5 16.4965 9.36845 19.4238 13 19.4238C16.6763 19.4238 19.5 16.4575 19.5 12.9492C19.5 9.37912 16.5841 6.47461 13 6.47461ZM13 17.28C10.5981 17.28 8.65222 15.3353 8.65222 12.9492C8.65222 10.5692 10.6106 8.61842 13 8.61842C15.3894 8.61842 17.3406 10.5692 17.3406 12.9492C17.3406 15.3004 15.44 17.28 13 17.28Z" fill="#F9F3F3"/>
</svg>
