<svg width="28" height="26" viewBox="0 0 28 26" fill="none" xmlns="http://www.w3.org/2000/svg">
<path d="M27.2802 19.1767L23.7993 15.9445C22.8396 15.0535 21.278 15.0535 20.3183 15.9445L18.7361 17.4137C18.009 18.0888 16.826 18.0885 16.0992 17.4139L9.24109 11.0405C8.51234 10.3639 8.51223 9.26865 9.24109 8.59189C9.49594 8.35525 10.2277 7.67574 10.8233 7.12274C11.7788 6.23559 11.7922 4.7901 10.8224 3.88975L7.34236 0.668587C6.38266 -0.222473 4.8211 -0.222473 3.86397 0.666251C3.14775 1.32549 2.91674 1.53817 2.5956 1.83376C-0.865174 5.04715 -0.865174 10.2757 2.59544 13.489L13.4619 23.5842C16.9308 26.8052 22.5452 26.8054 26.0144 23.5842L27.2802 22.4088C28.2399 21.5177 28.2399 20.0678 27.2802 19.1767ZM5.02176 1.74596C5.34164 1.44894 5.86207 1.44889 6.18299 1.74677L9.66302 4.96793C9.98366 5.26566 9.98366 5.74753 9.66302 6.04531L9.08281 6.584L4.44456 2.27724L5.02176 1.74596ZM14.6224 22.5069L3.7559 12.4117C1.0784 9.92556 0.931226 6.02175 3.30329 3.37233L7.92809 7.6666C6.71288 8.94573 6.76352 10.8949 8.08051 12.1177L14.9384 18.4908C14.9385 18.4909 14.9386 18.491 14.9386 18.491C16.2542 19.7126 18.3532 19.7627 19.7325 18.6328L24.3574 22.9272C21.5132 25.1259 17.3183 25.0102 14.6224 22.5069ZM26.12 21.3314L25.5398 21.8702L20.8985 17.5606L21.4786 17.0219C21.7985 16.7249 22.319 16.7248 22.639 17.0219L26.1199 20.2541C26.4399 20.5511 26.4399 21.0345 26.12 21.3314Z" fill="#F9F3F3"/>
</svg>
