<svg width="63" height="56" viewBox="0 0 63 56" fill="none" xmlns="http://www.w3.org/2000/svg">
<path d="M22.05 6.75862V8.68966H21C19.8865 8.69082 18.8189 9.09809 18.0316 9.82211C17.2442 10.5461 16.8013 11.5278 16.8 12.5517V16.4138C15.4081 16.4152 14.0737 16.9243 13.0895 17.8294C12.1052 18.7344 11.5516 19.9615 11.55 21.2414V31.9592C10.3651 32.1832 9.30033 32.776 8.53527 33.6377C7.77021 34.4994 7.35161 35.5773 7.35003 36.6897V49.2414H1.05004C0.864227 49.2414 0.681739 49.2867 0.521209 49.3728C0.360679 49.4588 0.227857 49.5825 0.136304 49.7312C0.0447498 49.8799 -0.00225662 50.0482 8.32788e-05 50.2191C0.00242318 50.3899 0.0540257 50.5572 0.149622 50.7037C1.20806 52.3154 2.70001 53.6493 4.48176 54.5769C6.26351 55.5045 8.27501 55.9946 10.3225 56H52.6775C54.725 55.9946 56.7365 55.5045 58.5182 54.5769C60.3 53.6493 61.7919 52.3154 62.8504 50.7037C62.946 50.5572 62.9976 50.3899 62.9999 50.2191C63.0023 50.0482 62.9552 49.8799 62.8637 49.7312C62.7721 49.5825 62.6393 49.4588 62.4788 49.3728C62.3183 49.2867 62.1358 49.2414 61.95 49.2414H55.65V36.6897C55.6484 35.5773 55.2298 34.4994 54.4647 33.6377C53.6997 32.776 52.6349 32.1832 51.45 31.9592V21.2414C51.4484 19.9615 50.8948 18.7344 49.9105 17.8294C48.9263 16.9243 47.5919 16.4152 46.2 16.4138V10.8549C46.2015 10.3476 46.0936 9.84497 45.8824 9.37622C45.6713 8.90747 45.3611 8.48188 44.9699 8.12409L39.5925 3.17936C39.4055 3.00732 39.1547 2.90656 38.8903 2.89722C38.626 2.88788 38.3675 2.97065 38.1667 3.12897L31.1116 8.68966H30.45V6.75862C30.451 6.21238 30.3258 5.67216 30.0827 5.17377C29.8395 4.67538 29.4839 4.2302 29.0395 3.86772C28.5951 3.50523 28.072 3.23372 27.5049 3.07118C26.9378 2.90864 26.3396 2.85878 25.7499 2.92489C25.1291 2.02778 24.272 1.28933 23.2581 0.778023C22.2443 0.266714 21.1064 -0.000898272 19.95 2.26528e-06V1.93104C20.685 1.93049 21.4102 2.08614 22.069 2.38584C22.7279 2.68554 23.3024 3.12119 23.7479 3.65877C23.2213 4.01762 22.7934 4.48493 22.4985 5.02324C22.2037 5.56155 22.0501 6.15589 22.05 6.75862ZM21 10.6207H21.9236L18.9 12.6066V12.5517C18.9007 12.0398 19.1221 11.5489 19.5158 11.1869C19.9095 10.8249 20.4433 10.6213 21 10.6207ZM18.9 14.9796L25.5364 10.6207H28.5066L20.6316 16.4138H18.9V14.9796ZM13.65 24.7347L14.7787 25.2536C15.8395 25.7413 17.0007 26.017 18.1857 26.0623C19.3707 26.1076 20.5527 25.9216 21.654 25.5166L23.7024 24.7632C26.0435 23.9021 28.6606 23.9315 30.9781 24.8447L34.8652 26.3766C35.9662 26.8119 37.1522 27.0357 38.3506 27.0345C40.2644 27.0308 42.126 26.4602 43.6595 25.4072C44.8556 24.5859 46.3077 24.1408 47.8006 24.1379H49.35V31.8621H13.65V24.7347ZM52.6775 54.069H10.3225C8.97376 54.0653 7.64028 53.8063 6.40519 53.3079C5.17011 52.8096 4.0599 52.0826 3.14376 51.1724H59.8562C58.9401 52.0826 57.8299 52.8096 56.5948 53.3079C55.3597 53.8063 54.0262 54.0653 52.6775 54.069ZM9.45003 49.2414V39.5862H9.63909C11.423 39.5882 13.1822 39.97 14.7787 40.7019C15.8395 41.1896 17.0007 41.4652 18.1857 41.5106C19.3707 41.5559 20.5527 41.3699 21.654 40.9649L23.7024 40.2115C26.0435 39.3504 28.6606 39.3797 30.9781 40.293L34.8652 41.8249C35.9662 42.2602 37.1522 42.484 38.3506 42.4828C40.2644 42.4791 42.126 41.9085 43.6595 40.8555C44.8556 40.0342 46.3077 39.5891 47.8006 39.5862H53.55V49.2414H9.45003ZM53.55 36.6897V37.6552H47.8006C45.8535 37.6589 43.9596 38.2394 42.3995 39.3107C41.23 40.1138 39.8102 40.549 38.3506 40.5517C37.4367 40.5527 36.5321 40.382 35.6924 40.05L31.8053 38.5182C30.4043 37.966 28.8988 37.6731 27.3747 37.656C25.8506 37.6389 24.3377 37.898 22.9225 38.4186L20.8741 39.1719C20.0483 39.4757 19.1618 39.6152 18.2731 39.5812C17.3844 39.5472 16.5136 39.3405 15.718 38.9747C13.8297 38.1092 11.749 37.6575 9.63909 37.6552H9.45003V36.6897C9.45098 35.9217 9.78316 35.1855 10.3737 34.6425C10.9642 34.0994 11.7649 33.794 12.6 33.7931H50.4C51.2351 33.794 52.0358 34.0994 52.6263 34.6425C53.2168 35.1855 53.549 35.9217 53.55 36.6897ZM49.35 21.2414V22.2069H47.8006C45.8535 22.2106 43.9596 22.7912 42.3995 23.8624C41.23 24.6655 39.8102 25.1007 38.3506 25.1034C37.4367 25.1044 36.5321 24.9337 35.6924 24.6018L31.8053 23.0699C30.4043 22.5177 28.8988 22.2248 27.3747 22.2077C25.8506 22.1906 24.3377 22.4497 22.9225 22.9703L20.8741 23.7236C20.0483 24.0274 19.1618 24.1669 18.2731 24.1329C17.3844 24.0989 16.5136 23.8923 15.718 23.5265L13.65 22.5757V21.2414C13.651 20.4734 13.9831 19.7372 14.5737 19.1942C15.1642 18.6511 15.9649 18.3457 16.8 18.3448H46.2C47.0351 18.3457 47.8358 18.6511 48.4263 19.1942C49.0169 19.7372 49.349 20.4734 49.35 21.2414ZM44.1 10.8549V16.4138H36.75L38.43 15.2552C40.6879 13.6899 42.2472 11.4209 42.8152 8.87376L43.4849 9.48952C43.6805 9.6684 43.8356 9.88119 43.9412 10.1156C44.0468 10.3499 44.1007 10.6013 44.1 10.8549ZM40.9393 7.14871C40.8734 8.42982 40.5016 9.68187 39.8501 10.8159C39.1987 11.95 38.2837 12.9382 37.17 13.7104L33.25 16.4138H30.2933L34.3565 13.4249C35.7055 12.4373 36.8051 11.1922 37.5795 9.77554C38.3539 8.35889 38.7845 6.80451 38.8417 5.21983L40.9393 7.14871ZM36.4613 7.01649C35.9418 8.95196 34.7405 10.675 33.0446 11.917L26.9317 16.4138H23.9934L32.156 10.4091L32.1553 10.4084C32.1646 10.4016 32.1743 10.3954 32.1833 10.3883L36.4613 7.01649ZM28.35 6.75862V8.68966H24.15V6.75862C24.1502 6.28729 24.3388 5.83247 24.6799 5.4807L25.2538 7.06394L27.2462 6.4533L26.671 4.86665C27.1448 4.95642 27.5704 5.19359 27.8762 5.5382C28.1821 5.88282 28.3494 6.31383 28.35 6.75862Z" fill="#421A18"/>
</svg>
