<svg width="30" height="28" viewBox="0 0 30 28" fill="none" xmlns="http://www.w3.org/2000/svg">
<path d="M9.73704 0.458117C6.00024 1.19678 2.57922 2.67411 1.21081 4.213C0.0529295 5.4441 0.000298475 5.9981 0.000298475 13.077C0.000298475 22.1872 -0.157594 21.9409 6.7897 21.9409H11.5265L11.6844 24.834L11.8423 27.7887L15.7896 27.9734C20.8422 28.2196 25.7895 26.7423 28.2105 24.2185L30 22.4334V14.4312C30 10.0608 29.7368 5.93654 29.4737 5.25944C27.6842 1.443 17.4738 -1.08077 9.73704 0.458117ZM23.5264 3.22811C26.2106 4.27455 28.4211 6.24432 28.4211 7.53699C28.4211 8.3372 27.8948 9.07587 25.8421 10.9841C24.9474 11.8459 24.7369 12.7692 24.7369 15.4776C24.7369 17.3243 24.5264 18.8632 24.2106 18.8632C23.9474 18.8632 23.6843 18.0014 23.6843 16.955C23.6843 14.3696 22.7895 12.7076 21.4211 12.7076C19.4738 12.7076 18.9475 13.8772 18.9475 18.0014C18.9475 20.1558 18.737 22.0641 18.4212 22.2487C18.1054 22.4949 17.8949 21.3254 17.8949 19.1709C17.8949 15.0467 17.2107 13.3232 15.5791 13.3232C13.7896 13.3232 13.6317 12.7692 14.737 10.1839C15.3159 8.8912 15.7896 7.53699 15.7896 7.16765C15.7896 6.79832 13.2107 6.5521 8.63179 6.5521C2.42133 6.5521 1.5266 6.42899 2.10554 5.69032C4.5792 2.12011 17.0528 0.704338 23.5264 3.22811ZM12.8949 10.2454C12.4739 11.2303 12.1054 12.2767 12.1054 12.6461C12.1054 13.7541 13.737 15.1699 15.0528 15.1699C16.2633 15.1699 16.3159 15.3545 16.3159 19.1709C16.3159 22.4949 16.4738 23.2336 17.3685 23.7876C18.1054 24.28 18.737 24.28 19.4738 23.7876C20.3685 23.2336 20.5264 22.4949 20.5264 18.8016C20.5264 15.6007 20.6843 14.4927 21.2106 14.6774C21.5264 14.8621 21.9474 16.1547 22.1053 17.6936C22.3159 19.9712 22.579 20.4636 23.579 20.5867C25.5264 20.9561 26.3158 19.6634 26.3158 16.1547C26.3158 13.2001 26.9474 11.4765 28 11.4765C28.2105 11.4765 28.4211 13.8156 28.4211 16.6472C28.4211 21.5101 28.3158 21.9409 27.0527 23.1105C25 24.9572 20.8422 26.2498 16.7896 26.2498H13.2107L13.0528 21.5101L12.8949 16.7087L7.26338 16.5241L1.57923 16.3394V12.3999V8.39876H7.6318H13.737L12.8949 10.2454Z" fill="#A2101A"/>
</svg>
