<svg width="32" height="30" viewBox="0 0 32 30" fill="none" xmlns="http://www.w3.org/2000/svg">
<path d="M17.3167 6.87893C17.8301 7.09125 18.2977 7.40046 18.6937 7.78958C19.203 8.4265 19.233 9.32152 18.7673 9.9909C18.5906 10.2261 18.6384 10.5597 18.874 10.736C19.1097 10.9124 19.4439 10.8647 19.6207 10.6296C20.3945 9.56329 20.3455 8.10919 19.5017 7.09715C19.018 6.59573 18.4374 6.19739 17.7951 5.92623C17.2343 5.70707 16.735 5.35552 16.3401 4.90168C16.0121 4.41256 15.9881 3.7807 16.2783 3.26826C16.4191 3.01596 16.3326 2.69761 16.0834 2.55086C15.8341 2.4041 15.5131 2.48249 15.3599 2.72751C14.8581 3.59857 14.8995 4.67924 15.4665 5.50949C15.9557 6.11642 16.5927 6.58794 17.3167 6.87893Z" fill="#A2101A"/>
<path d="M13.8852 11.4843C13.9792 11.4844 14.0731 11.4784 14.1663 11.4662C14.4583 11.4271 14.6633 11.1592 14.6241 10.8677C14.5849 10.5763 14.3164 10.3717 14.0244 10.4108C13.5039 10.4507 13.0025 10.2063 12.714 9.77214C12.4126 9.28706 12.3215 8.7006 12.4617 8.14724C12.6184 7.55014 12.9331 7.00603 13.3727 6.57182C13.5129 6.4364 13.5679 6.23533 13.5159 6.04759C13.464 5.85985 13.3134 5.71543 13.1234 5.67106C12.9333 5.62668 12.7342 5.68944 12.6041 5.83468C12.0298 6.40753 11.6214 7.12477 11.4223 7.91039C11.2121 8.75133 11.36 9.64154 11.8308 10.3698C12.2935 11.0523 13.0596 11.468 13.8852 11.4843Z" fill="#A2101A"/>
<path d="M31.1771 18.5199C30.8793 18.0115 30.3912 17.6421 29.8203 17.4932C29.5757 14.1487 28.1799 10.9914 25.8693 8.55651C26.1613 7.78504 26.1472 6.93142 25.8299 6.16998C25.0597 4.45086 22.6096 3.59663 20.56 3.04417C19.1973 2.67746 18.9701 2.2538 18.936 2.08881C18.8661 1.75404 19.2779 1.30057 19.4864 1.13398C19.649 1.00654 19.7231 0.796801 19.6767 0.595756C19.6302 0.394711 19.4714 0.238589 19.2693 0.195123C17.1733 -0.253018 13.0507 -0.176909 11.9397 3.16392C10.6325 3.33903 6.3776 4.17517 5.94507 7.71292C5.91287 8.051 5.9229 8.39175 5.97493 8.72736C3.76371 11.1427 2.43009 14.2295 2.18827 17.4922C1.15433 17.7473 0.456692 18.7109 0.538667 19.7707C0.191896 20.4041 0.00688523 21.113 0 21.8347C0 26.3113 7.02827 29.8182 16 29.8182C24.9717 29.8182 32 26.3113 32 21.8347C31.9931 21.112 31.8077 20.4021 31.4603 19.768C31.4918 19.3332 31.3933 18.8988 31.1771 18.5199ZM30.2528 19.0522C30.4077 19.332 30.4439 19.6621 30.3531 19.9687C30.2168 20.4259 29.9054 20.811 29.4864 21.0406C29.0427 21.3121 28.4999 21.3694 28.0091 21.1965C27.861 20.8859 27.6476 20.6107 27.3835 20.3897C27.3435 20.3556 27.2917 20.3263 27.248 20.2949C27.2076 19.6396 27.5586 19.0222 28.1429 18.7206C28.4823 18.5201 28.8767 18.4323 29.2693 18.4699C29.6729 18.4906 30.0406 18.7079 30.2528 19.0511V19.0522ZM27.1125 21.7916C27.3239 22.6939 26.8082 23.6076 25.9253 23.895C25.241 24.2246 24.426 24.1178 23.8501 23.623V23.6145C23.7907 23.2808 23.6567 22.9649 23.4581 22.69C23.5035 21.9346 23.9928 21.2777 24.7045 21.0166C25.2757 20.7589 25.9334 20.775 26.4912 21.0603C26.5641 21.1025 26.6333 21.1507 26.6981 21.2045C26.8666 21.3399 26.9994 21.5142 27.0853 21.7123C27.0912 21.7266 27.0981 21.7453 27.1072 21.7735V21.7772L27.1125 21.7916ZM17.2304 23.4463C17.835 22.9082 18.5839 22.5581 19.3851 22.4388C19.6602 22.391 19.9389 22.3669 20.2181 22.3669C20.7453 22.3596 21.2682 22.4619 21.7536 22.6671C22.2695 22.844 22.6618 23.2677 22.7979 23.7949C22.847 24.337 22.6197 24.8673 22.1931 25.2064C20.9411 26.271 19.2072 26.5699 17.6699 25.9861C17.1539 25.8095 16.7615 25.386 16.6256 24.8588C16.576 24.3164 16.8033 23.7855 17.2304 23.4463ZM7.00373 7.84279C7.39893 4.61319 12.3435 4.18794 12.3904 4.18421C12.6191 4.16658 12.8109 4.00497 12.8667 3.78291C13.5477 1.0632 16.5675 0.967394 18.1211 1.10631C17.898 1.46234 17.8157 1.88845 17.8901 2.3017C18.0544 3.10538 18.8368 3.68551 20.2821 4.07351C21.9616 4.52644 24.2624 5.28168 24.8555 6.60641C25.0426 7.05918 25.0639 7.56323 24.9157 8.03013C24.6268 7.75579 24.2857 7.54206 23.9125 7.40157C23.6387 7.30612 23.3386 7.44657 23.2371 7.71771C23.1355 7.98885 23.2698 8.29126 23.5392 8.39844C24.072 8.59751 24.4891 9.02175 24.6784 9.55711C25.2837 11.2571 23.4736 13.0933 22.3083 13.9102C21.0779 14.7741 19.3045 15.2749 18.0416 14.1082C17.8746 13.9028 17.7268 13.6826 17.6 13.4504C17.6303 13.2483 17.542 13.0467 17.3727 12.9317C17.2035 12.8167 16.9832 12.8085 16.8059 12.9107C15.9285 13.4158 13.6789 14.4616 11.7707 13.2833C11.6395 13.1822 10.7819 12.3891 10.6176 12.2188C10.5971 12.191 10.5739 12.1654 10.5483 12.1422C10.4024 12.0105 10.1958 11.9696 10.0107 12.0357C9.34691 12.2458 8.62312 12.1382 8.0496 11.7441C7.7854 11.5487 7.65365 11.2218 7.7088 10.8983C7.89183 10.2113 8.26087 9.5878 8.77547 9.0962L8.93173 8.91151C9.11271 8.68585 9.08015 8.3573 8.85837 8.1714C8.6366 7.9855 8.30668 8.01021 8.1152 8.22706L7.96267 8.40695C7.73227 8.67733 7.49067 8.9642 7.27627 9.27343C7.05314 8.83137 6.95872 8.33572 7.00373 7.84279ZM6.75627 10.3017C6.70739 10.4514 6.6717 10.6051 6.6496 10.761C6.54813 11.4515 6.82713 12.143 7.37973 12.5706C8.13613 13.1232 9.09232 13.3287 10.0096 13.1358C10.3677 13.5138 10.7594 13.8587 11.1797 14.1663C12.7387 15.1323 14.7456 15.1142 16.76 14.1386C16.9164 14.3973 17.096 14.6414 17.2965 14.8677C17.9878 15.5062 18.8982 15.8554 19.84 15.8433C20.9518 15.8122 22.0271 15.4406 22.92 14.7789C24.4085 13.7346 25.9067 11.991 25.8576 10.1713C27.51 12.2542 28.5099 14.7773 28.7323 17.4246C28.3369 17.4736 27.9552 17.6002 27.6091 17.7972C26.8434 18.2177 26.3176 18.9701 26.1867 19.8324C25.547 19.7085 24.8848 19.7792 24.2859 20.0352C23.467 20.3713 22.8289 21.0377 22.5296 21.8693C22.418 21.8051 22.3032 21.7466 22.1856 21.6942C20.2538 20.9363 18.0599 21.3147 16.4949 22.6756C16.3092 22.8507 16.1432 23.0456 16 23.2568C15.8568 23.0456 15.6908 22.8507 15.5051 22.6756C14.7471 21.9926 13.8055 21.5456 12.7963 21.3897C11.7931 21.1988 10.7559 21.3047 9.81227 21.6942C9.69468 21.7466 9.57987 21.8051 9.46827 21.8693C9.16893 21.0377 8.53088 20.3713 7.712 20.0352C7.11079 19.7777 6.44566 19.7074 5.80373 19.8335C5.67048 18.9737 5.14881 18.2228 4.3888 17.7966C4.04267 17.5998 3.66095 17.4731 3.2656 17.4241C3.50272 14.6457 4.59365 12.0081 6.38933 9.87166C6.49157 10.0309 6.61501 10.1756 6.75627 10.3017ZM4.89547 21.7666C4.90116 21.7473 4.9081 21.7285 4.91627 21.7101C5.03374 21.4397 5.23707 21.2153 5.49493 21.0715C5.51341 21.0604 5.53121 21.0484 5.54827 21.0353C6.09892 20.7727 6.73733 20.7647 7.2944 21.0134C8.00595 21.2748 8.49512 21.9315 8.5408 22.6868C8.34236 22.9615 8.20839 23.2773 8.1488 23.6107V23.6198C7.57235 24.1142 6.75715 24.2208 6.07253 23.8912C5.18405 23.5988 4.6711 22.6729 4.89547 21.7666ZM9.20213 23.7944C9.33817 23.2672 9.7305 22.8435 10.2464 22.6666C10.7319 22.4615 11.2548 22.3595 11.7819 22.3669C12.0611 22.3671 12.3398 22.3913 12.6149 22.4393C13.4161 22.5586 14.165 22.9088 14.7696 23.4468C15.1963 23.7858 15.4236 24.3162 15.3744 24.8583C15.2386 25.3856 14.8462 25.8094 14.3301 25.9861C13.5796 26.2903 12.7566 26.3696 11.9616 26.2144C11.1603 26.095 10.4115 25.7446 9.80693 25.2064C9.38011 24.8672 9.15282 24.3366 9.20213 23.7944ZM1.74773 19.05C1.96306 18.7039 2.33562 18.486 2.74347 18.4678C3.13154 18.4329 3.52077 18.5208 3.856 18.719C4.44134 19.0208 4.79126 19.6406 4.74667 20.2965C4.42095 20.5276 4.15898 20.837 3.98507 21.196C3.49452 21.3657 2.95357 21.3071 2.51093 21.0363C2.09309 20.8068 1.78268 20.4223 1.64693 19.966C1.55658 19.6595 1.59288 19.3297 1.74773 19.05ZM16 28.7537C7.90507 28.7537 1.06667 25.5853 1.06667 21.8347C1.06892 21.6338 1.09053 21.4337 1.1312 21.237C1.36552 21.5283 1.65241 21.7733 1.97707 21.9592C2.42718 22.2233 2.93922 22.3639 3.46133 22.3669C3.56184 22.3669 3.66227 22.3612 3.76213 22.3499C3.86351 23.4821 4.59797 24.4597 5.65867 24.8743C6.06655 25.0482 6.50525 25.1387 6.9488 25.1404C7.40989 25.1421 7.86489 25.0353 8.2768 24.8285C8.45225 25.2663 8.7238 25.6593 9.07147 25.9786C9.82943 26.6615 10.771 27.1081 11.7803 27.2635C12.114 27.3217 12.4521 27.351 12.7909 27.3513C13.4689 27.3588 14.141 27.2252 14.7643 26.959C15.2515 26.7536 15.6771 26.426 16 26.0079C16.323 26.4256 16.7487 26.7528 17.2357 26.958C17.859 27.2242 18.5311 27.3578 19.2091 27.3502C19.5479 27.35 19.886 27.3206 20.2197 27.2624C21.229 27.1069 22.1706 26.6601 22.9285 25.9771C23.2762 25.6577 23.5477 25.2647 23.7232 24.8269C24.1352 25.034 24.5904 25.1409 25.0517 25.1388C25.4947 25.1368 25.9329 25.0463 26.3403 24.8727C27.4016 24.4579 28.1374 23.4809 28.2416 22.3483C28.3406 22.3591 28.4401 22.3646 28.5397 22.3648C29.0605 22.362 29.5712 22.2219 30.0203 21.9587C30.3458 21.7722 30.6335 21.5267 30.8688 21.2348C30.9096 21.4322 30.9312 21.6331 30.9333 21.8347C30.9333 25.5853 24.0949 28.7537 16 28.7537Z" fill="#A2101A"/>
</svg>
