<svg width="51" height="45" viewBox="0 0 51 45" fill="none" xmlns="http://www.w3.org/2000/svg">
<path d="M16.4317 29.8832H16.434C16.436 29.8832 16.4379 29.8829 16.4399 29.8829H43.5294C44.1963 29.8829 44.7827 29.4405 44.9659 28.7992L50.9425 7.88122C51.0713 7.43025 50.981 6.94543 50.6989 6.57112C50.4164 6.1968 49.9748 5.97657 49.5059 5.97657H12.9858L11.9177 1.17002C11.7656 0.486375 11.1594 0 10.459 0H1.49414C0.668862 0 0 0.668862 0 1.49414C0 2.31942 0.668862 2.98829 1.49414 2.98829H9.26057C9.44968 3.84003 14.3718 25.9899 14.6551 27.2642C13.0671 27.9545 11.9531 29.5377 11.9531 31.377C11.9531 33.8486 13.964 35.8594 16.4356 35.8594H43.5294C44.3546 35.8594 45.0235 35.1906 45.0235 34.3653C45.0235 33.54 44.3546 32.8711 43.5294 32.8711H16.4356C15.6118 32.8711 14.9414 32.2007 14.9414 31.377C14.9414 30.5544 15.6095 29.8852 16.4317 29.8832V29.8832ZM47.525 8.96486L42.4021 26.8946H17.634L13.6496 8.96486H47.525Z" fill="#F9F3F3"/>
<path d="M14.9414 40.3419C14.9414 42.8134 16.9523 44.8243 19.4238 44.8243C21.8954 44.8243 23.9063 42.8134 23.9063 40.3419C23.9063 37.8703 21.8954 35.8594 19.4238 35.8594C16.9523 35.8594 14.9414 37.8703 14.9414 40.3419ZM19.4238 38.8477C20.2476 38.8477 20.918 39.5181 20.918 40.3419C20.918 41.1656 20.2476 41.836 19.4238 41.836C18.6001 41.836 17.9297 41.1656 17.9297 40.3419C17.9297 39.5181 18.6001 38.8477 19.4238 38.8477Z" fill="#F9F3F3"/>
<path d="M36.0586 40.3419C36.0586 42.8134 38.0695 44.8243 40.541 44.8243C43.0126 44.8243 45.0235 42.8134 45.0235 40.3419C45.0235 37.8703 43.0126 35.8594 40.541 35.8594C38.0695 35.8594 36.0586 37.8703 36.0586 40.3419ZM40.541 38.8477C41.3647 38.8477 42.0352 39.5181 42.0352 40.3419C42.0352 41.1656 41.3647 41.836 40.541 41.836C39.7173 41.836 39.0469 41.1656 39.0469 40.3419C39.0469 39.5181 39.7173 38.8477 40.541 38.8477Z" fill="#F9F3F3"/>
</svg>
