<svg width="36" height="30" viewBox="0 0 36 30" fill="none" xmlns="http://www.w3.org/2000/svg">
<path d="M8.54564 21.6179L6.14564 21.0179C6.04512 20.9928 5.93981 20.9941 5.83996 21.0218C5.74011 21.0494 5.64913 21.1025 5.57585 21.1757L3.77585 22.9757C3.72013 23.0314 3.67593 23.0976 3.64578 23.1704C3.61562 23.2432 3.6001 23.3212 3.6001 23.4C3.6001 23.4788 3.61562 23.5568 3.64578 23.6296C3.67593 23.7024 3.72013 23.7685 3.77585 23.8242L5.57585 25.6242C5.67392 25.7223 5.80295 25.7834 5.94098 25.7971C6.07901 25.8107 6.21751 25.7761 6.33292 25.6992L8.13292 24.4992C8.24394 24.4252 8.32712 24.3163 8.36931 24.1897L8.96931 22.3897C8.99545 22.3113 9.0051 22.2283 8.99766 22.146C8.99021 22.0636 8.96584 21.9837 8.92606 21.9113C8.88628 21.8388 8.83195 21.7753 8.76649 21.7248C8.70103 21.6744 8.62584 21.6379 8.54564 21.6179V21.6179ZM7.29598 23.6149L6.07657 24.4279L5.04862 23.4L6.18416 22.2645L7.62601 22.6249L7.29598 23.6149Z" fill="#A2101A"/>
<path d="M7.37574 19.0243C7.47381 19.1223 7.60284 19.1834 7.74087 19.1971C7.8789 19.2107 8.0174 19.1762 8.13281 19.0992L9.93281 17.8992C10.015 17.8444 10.0824 17.7702 10.129 17.6831C10.1756 17.596 10.2 17.4988 10.2 17.4V15.6C10.2 15.5212 10.1845 15.4432 10.1543 15.3704C10.1242 15.2976 10.08 15.2314 10.0243 15.1757C9.96855 15.12 9.90241 15.0758 9.82961 15.0457C9.75681 15.0155 9.67879 15 9.6 15H7.8C7.70122 15 7.60397 15.0244 7.51688 15.071C7.4298 15.1176 7.35556 15.185 7.30078 15.2672L6.10078 17.0672C6.02383 17.1826 5.98925 17.3211 6.00292 17.4591C6.01659 17.5972 6.07766 17.7262 6.17574 17.8243L7.37574 19.0243ZM8.12109 16.2H9V17.0789L7.87646 17.8279L7.37208 17.3235L8.12109 16.2Z" fill="#A2101A"/>
<path d="M13.7693 23.8103C13.7374 23.7145 13.6818 23.6283 13.6078 23.5598C13.5337 23.4912 13.4435 23.4424 13.3456 23.4179L10.9456 22.8179C10.799 22.7812 10.6439 22.8013 10.5114 22.874C10.3789 22.9468 10.2787 23.0668 10.2309 23.2103L9.63089 25.0103C9.59565 25.116 9.59055 25.2294 9.61615 25.3378C9.64175 25.4463 9.69704 25.5455 9.77584 25.6242L11.5758 27.4242C11.6739 27.5223 11.8029 27.5834 11.941 27.5971C12.079 27.6107 12.2175 27.5762 12.3329 27.4992L14.1329 26.2992C14.2424 26.2262 14.3249 26.1192 14.3676 25.9947C14.4103 25.8702 14.4109 25.7351 14.3693 25.6103L13.7693 23.8103ZM12.0766 26.2279L10.8866 25.0379L11.1936 24.1168L12.735 24.5022L13.0859 25.555L12.0766 26.2279Z" fill="#A2101A"/>
<path d="M3.40674 18.639L5.20732 18.0394L5.58652 19.1782L3.78594 19.7778L3.40674 18.639Z" fill="#A2101A"/>
<path d="M10.3721 19.6231L11.2205 18.7747L12.4203 19.9745L11.5719 20.8229L10.3721 19.6231Z" fill="#A2101A"/>
<path d="M30.9782 2.41472L29.9366 0.331677C29.8868 0.23201 29.8102 0.148189 29.7154 0.0896067C29.6207 0.0310244 29.5114 -3.5909e-06 29.4 3.70271e-10H27.6C27.5355 1.62848e-06 27.4714 0.0104011 27.4103 0.0307981L25.8468 0.551953L25.7366 0.331678C25.6868 0.232011 25.6102 0.148189 25.5154 0.0896067C25.4207 0.0310241 25.3114 -3.86954e-06 25.2 3.70271e-10H22.8C22.7212 -2.76784e-06 22.6432 0.0155162 22.5704 0.0456708C22.4976 0.0758253 22.4315 0.120025 22.3757 0.175745L20.145 2.40646C18.7592 2.47354 17.4521 3.07086 16.4944 4.07482C15.5367 5.07878 15.0017 6.41251 15 7.8V9.6C15 9.67879 15.0155 9.75682 15.0457 9.82961C15.0758 9.90241 15.12 9.96855 15.1757 10.0243C15.2314 10.08 15.2976 10.1242 15.3704 10.1543C15.4432 10.1845 15.5212 10.2 15.6 10.2H17.0076C16.5936 10.534 16.2312 10.9274 15.9321 11.3674C14.2433 10.2138 12.2452 9.59768 10.2 9.6C4.5757 9.6 0 14.1757 0 19.8C0 25.4243 4.5757 30 10.2 30C11.8748 30.0019 13.5239 29.5888 15 28.7977V29.4C15 29.4788 15.0155 29.5568 15.0457 29.6296C15.0758 29.7024 15.12 29.7686 15.1757 29.8243C15.2314 29.88 15.2976 29.9242 15.3704 29.9543C15.4432 29.9845 15.5212 30 15.6 30H35.4C35.4788 30 35.5568 29.9845 35.6296 29.9543C35.7024 29.9242 35.7686 29.88 35.8243 29.8243C35.88 29.7686 35.9242 29.7024 35.9543 29.6296C35.9845 29.5568 36 29.4788 36 29.4V27.6C36 26.7941 35.8193 25.9985 35.4713 25.2717C35.1232 24.5448 34.6167 23.9053 33.9889 23.4H35.4C35.4788 23.4 35.5568 23.3845 35.6296 23.3543C35.7024 23.3242 35.7686 23.28 35.8243 23.2243C35.88 23.1686 35.9242 23.1024 35.9543 23.0296C35.9845 22.9568 36 22.8788 36 22.8V21C36 20.1941 35.8193 19.3985 35.4713 18.6717C35.1232 17.9448 34.6167 17.3053 33.9889 16.8H35.4C35.4788 16.8 35.5568 16.7845 35.6296 16.7543C35.7024 16.7242 35.7686 16.68 35.8243 16.6243C35.88 16.5686 35.9242 16.5024 35.9543 16.4296C35.9845 16.3568 36 16.2788 36 16.2V14.4C36 13.5941 35.8193 12.7985 35.4713 12.0717C35.1232 11.3448 34.6167 10.7053 33.9889 10.2H35.4C35.4788 10.2 35.5568 10.1845 35.6296 10.1543C35.7024 10.1242 35.7686 10.08 35.8243 10.0243C35.88 9.96855 35.9242 9.90241 35.9543 9.82961C35.9845 9.75682 36 9.67879 36 9.6V7.8C35.9982 6.43396 35.4794 5.11924 34.5477 4.12017C33.6161 3.12111 32.3408 2.51179 30.9782 2.41472ZM27.6974 1.2H29.0292L29.6292 2.4H26.7708L26.3889 1.63616L27.6974 1.2ZM23.0485 1.2H24.8292L25.4292 2.4H21.8485L23.0485 1.2ZM1.2 19.8C1.2 18.02 1.72784 16.2799 2.71677 14.7999C3.70571 13.3198 5.11131 12.1663 6.75585 11.4851C8.40038 10.8039 10.21 10.6257 11.9558 10.9729C13.7016 11.3202 15.3053 12.1774 16.564 13.436C17.8226 14.6947 18.6798 16.2984 19.0271 18.0442C19.3743 19.79 19.1961 21.5996 18.5149 23.2441C17.8337 24.8887 16.6802 26.2943 15.2001 27.2832C13.7201 28.2722 11.98 28.8 10.2 28.8C7.81388 28.7973 5.52627 27.8482 3.83903 26.161C2.15178 24.4737 1.2027 22.1861 1.2 19.8ZM34.8 27.6V28.8H16.2V28.0432C17.7897 26.8839 19.0123 25.2917 19.7218 23.4565C19.9452 23.4203 30.6 23.4 30.6 23.4C31.7135 23.4013 32.7811 23.8442 33.5685 24.6315C34.3558 25.4189 34.7987 26.4865 34.8 27.6ZM34.8 21V22.2H20.1141C20.5428 20.4265 20.4886 18.5704 19.957 16.825C20.1038 16.8096 30.6 16.8 30.6 16.8C31.7135 16.8013 32.7811 17.2442 33.5685 18.0315C34.3558 18.8189 34.7987 19.8865 34.8 21ZM34.8 14.4V15.6H19.4947C18.8857 14.2601 17.9954 13.067 16.8843 12.1017C17.2666 11.518 17.788 11.0385 18.4018 10.7065C19.0155 10.3745 19.7022 10.2005 20.4 10.2H30.6C31.7135 10.2013 32.7811 10.6442 33.5685 11.4315C34.3558 12.2189 34.7987 13.2865 34.8 14.4ZM34.8 9H16.2V7.8C16.2013 6.68648 16.6442 5.61892 17.4315 4.83154C18.2189 4.04416 19.2865 3.60126 20.4 3.6H30.6C31.7135 3.60126 32.7811 4.04416 33.5685 4.83154C34.3558 5.61892 34.7987 6.68648 34.8 7.8V9Z" fill="#A2101A"/>
<path d="M11.4308 15.7897C11.4603 15.8781 11.5099 15.9584 11.5758 16.0243C11.6416 16.0901 11.7219 16.1397 11.8103 16.1692L13.6103 16.7692C13.685 16.7942 13.764 16.8042 13.8426 16.7987C13.9212 16.7931 13.998 16.7721 14.0685 16.7369C14.139 16.7016 14.2018 16.6528 14.2534 16.5933C14.305 16.5337 14.3444 16.4645 14.3692 16.3897L14.9692 14.5897C14.9942 14.515 15.0041 14.4361 14.9985 14.3575C14.9929 14.2789 14.9719 14.2022 14.9367 14.1317L14.3367 12.9317C14.2756 12.8096 14.1748 12.712 14.0507 12.6549C13.9267 12.5979 13.7869 12.5848 13.6545 12.6179L11.2545 13.2179C11.1743 13.238 11.0991 13.2744 11.0337 13.3249C10.9682 13.3753 10.9139 13.4388 10.8741 13.5113C10.8343 13.5838 10.8099 13.6637 10.8025 13.746C10.795 13.8283 10.8047 13.9113 10.8308 13.9897L11.4308 15.7897ZM13.4786 13.8988L13.7522 14.446L13.4206 15.4411L12.4744 15.1257L12.1741 14.225L13.4786 13.8988Z" fill="#A2101A"/>
<path d="M13.3716 19.0234L14.22 18.175L15.4198 19.3748L14.5714 20.2232L13.3716 19.0234Z" fill="#A2101A"/>
<path d="M7.37305 12.775L8.57284 11.5752L9.42124 12.4236L8.22145 13.6234L7.37305 12.775Z" fill="#A2101A"/>
<path d="M17.9999 22.8V21C17.9999 20.9212 17.9844 20.8432 17.9542 20.7704C17.9241 20.6976 17.8799 20.6314 17.8242 20.5757C17.7685 20.52 17.7023 20.4758 17.6295 20.4457C17.5567 20.4155 17.4787 20.4 17.3999 20.4H16.1999C16.1068 20.4 16.0149 20.4217 15.9316 20.4633L14.7316 21.0633C14.6611 21.0986 14.5983 21.1474 14.5466 21.2069C14.495 21.2664 14.4556 21.3355 14.4307 21.4103C14.4058 21.485 14.3958 21.5639 14.4014 21.6425C14.407 21.7211 14.428 21.7978 14.4633 21.8683L15.0633 23.0683C15.1131 23.168 15.1897 23.2518 15.2845 23.3104C15.3793 23.369 15.4885 23.4 15.5999 23.4H17.3999C17.4787 23.4 17.5567 23.3845 17.6295 23.3543C17.7023 23.3242 17.7685 23.28 17.8242 23.2243C17.8799 23.1685 17.9241 23.1024 17.9542 23.0296C17.9844 22.9568 17.9999 22.8788 17.9999 22.8ZM16.7999 22.2H15.9707L15.8049 21.8683L16.3416 21.6H16.7999V22.2Z" fill="#A2101A"/>
<path d="M18.321 6.66309L19.5205 6.06336L20.0569 7.13616L18.8574 7.73589L18.321 6.66309Z" fill="#A2101A"/>
<path d="M21.8738 5.90314L22.5398 4.90474L24.3396 6.10537L23.6736 7.10377L21.8738 5.90314Z" fill="#A2101A"/>
<path d="M27.3174 6.66504L28.5168 6.06531L29.0532 7.13811L27.8538 7.73784L27.3174 6.66504Z" fill="#A2101A"/>
<path d="M30.2764 5.90363L30.9424 4.90523L32.7422 6.10586L32.0762 7.10426L30.2764 5.90363Z" fill="#A2101A"/>
<path d="M21.8735 12.5051L22.5395 11.5067L24.3394 12.7073L23.6734 13.7057L21.8735 12.5051Z" fill="#A2101A"/>
<path d="M27.3157 13.2622L28.5151 12.6624L29.0515 13.7352L27.8521 14.335L27.3157 13.2622Z" fill="#A2101A"/>
<path d="M30.2761 12.5056L30.9421 11.5072L32.742 12.7078L32.076 13.7062L30.2761 12.5056Z" fill="#A2101A"/>
<path d="M21.873 19.1071L22.539 18.1087L24.3389 19.3094L23.6729 20.3078L21.873 19.1071Z" fill="#A2101A"/>
<path d="M27.3142 19.8593L28.5137 19.2596L29.0501 20.3324L27.8506 20.9321L27.3142 19.8593Z" fill="#A2101A"/>
<path d="M30.2756 19.1075L30.9416 18.1091L32.7415 19.3097L32.0755 20.3081L30.2756 19.1075Z" fill="#A2101A"/>
<path d="M18.3167 26.4546L19.5161 25.8549L20.0525 26.9277L18.8531 27.5274L18.3167 26.4546Z" fill="#A2101A"/>
<path d="M21.873 25.7091L22.539 24.7107L24.3389 25.9113L23.6729 26.9097L21.873 25.7091Z" fill="#A2101A"/>
<path d="M27.313 26.4565L28.5124 25.8568L29.0488 26.9296L27.8494 27.5293L27.313 26.4565Z" fill="#A2101A"/>
<path d="M30.2754 25.7095L30.9414 24.7111L32.7413 25.9118L32.0753 26.9102L30.2754 25.7095Z" fill="#A2101A"/>
</svg>
