<svg width="25" height="36" viewBox="0 0 25 36" fill="none" xmlns="http://www.w3.org/2000/svg">
<path d="M1.31364e-06 17.8819V23.2465C0.000185802 23.2952 0.00634291 23.3437 0.0183346 23.391L0.0177669 23.3911L2.99396 35.3124C3.02616 35.4414 3.10048 35.5558 3.20511 35.6376C3.30975 35.7195 3.43868 35.7639 3.57143 35.7639H21.4286C21.5625 35.7639 21.6925 35.7187 21.7975 35.6356C21.9026 35.5525 21.9766 35.4363 22.0076 35.3059L24.9838 22.7885L24.9823 22.7881C24.9936 22.7431 24.9995 22.6969 25 22.6505V17.8819C24.9998 17.4706 24.8933 17.0662 24.6909 16.7082C24.4885 16.3503 24.1971 16.0508 23.845 15.8389C24.5937 14.8942 25.0008 13.7234 25 12.5174V10.7292C24.9979 8.83279 24.2446 7.0147 22.9055 5.67376C21.5665 4.33282 19.7509 3.57853 17.8571 3.57639C17.0681 3.57549 16.3116 3.26121 15.7536 2.70248C15.1957 2.14376 14.8818 1.38622 14.881 0.596065C14.8809 0.437979 14.8182 0.286369 14.7066 0.174585C14.595 0.0628015 14.4436 1.58083e-06 14.2857 0H13.3929C11.9967 0.00176524 10.6504 0.519976 9.61251 1.45512C8.57462 2.39026 7.91831 3.6764 7.76963 5.06655H6.39881C4.70233 5.06847 3.07588 5.74418 1.87628 6.94544C0.67669 8.1467 0.00191706 9.77541 1.31364e-06 11.4742V12.5174C-0.000843992 13.7234 0.406289 14.8942 1.15504 15.8389C0.80291 16.0508 0.511497 16.3503 0.309108 16.7082C0.106718 17.0662 0.00023468 17.4706 1.31364e-06 17.8819ZM5.35714 17.8819H19.6429C20.841 17.8828 22.0045 17.4793 22.9455 16.7365C23.1941 16.8077 23.4129 16.958 23.5687 17.1646C23.7246 17.3712 23.8091 17.623 23.8095 17.8819V21.2459C22.1867 19.8393 20.1106 19.0679 17.9643 19.0741C16.6678 19.0731 15.398 19.4421 14.3033 20.1377L14.2941 20.137L14.2936 20.144C14.2511 20.171 14.2083 20.1976 14.1663 20.2256C13.6592 20.5667 13.0667 20.7586 12.4562 20.7797C11.8456 20.8007 11.2414 20.6501 10.712 20.3447C9.99088 19.9288 9.16782 19.7236 8.33615 19.7523C7.50449 19.781 6.69749 20.0425 6.00666 20.507L4.62708 21.4281C3.60206 22.1139 2.41918 22.5263 1.19048 22.6262V17.8819C1.19091 17.623 1.27542 17.3712 1.43127 17.1646C1.58712 16.958 1.80585 16.8077 2.05446 16.7365C2.99546 17.4793 4.15896 17.8828 5.35714 17.8819ZM6.0764 21.8932L8.10215 34.5718H6.59648L4.28413 22.9941C4.63118 22.8257 4.96638 22.6339 5.28743 22.42L6.0764 21.8932ZM7.17481 21.2224C7.93193 20.8878 8.78783 20.8545 9.56862 21.1291L10.6426 34.5718H9.30774L7.17481 21.2224ZM10.8085 21.7C11.9045 22.1046 13.1155 22.0604 14.1791 21.5769L13.141 34.5718H11.8369L10.8085 21.7ZM15.4301 20.867C16.1817 20.4891 17.0083 20.2845 17.8492 20.2683L15.5639 34.5718H14.3352L15.4301 20.867ZM19.0433 20.3407C19.8146 20.4468 20.5654 20.6696 21.2699 21.0013L18.5596 34.5718H16.7695L19.0433 20.3407ZM1.34894 23.8078C1.96408 23.7533 2.57138 23.6312 3.15987 23.4437L5.38241 34.5718H4.03617L1.34894 23.8078ZM20.9584 34.5718H19.7737L22.3587 21.6286C22.752 21.8999 23.1197 22.2065 23.4573 22.5447L23.7487 22.8365L20.9584 34.5718ZM1.19048 11.4742C1.19204 10.0915 1.74128 8.76579 2.71769 7.78802C3.69411 6.81025 5.01796 6.26025 6.39881 6.25868H7.76963C7.91831 7.64883 8.57462 8.93497 9.61251 9.87011C10.6504 10.8053 11.9967 11.3235 13.3929 11.3252H17.2619V10.1331H13.3929C12.2089 10.1331 11.0733 9.66211 10.2361 8.82373C9.39891 7.98535 8.92857 6.84826 8.92857 5.66262C8.92857 4.47697 9.39891 3.33988 10.2361 2.5015C11.0733 1.66313 12.2089 1.19213 13.3929 1.19213H13.7329C13.8773 2.18466 14.3734 3.09207 15.1306 3.74866C15.8878 4.40526 16.8555 4.76724 17.8571 4.76852C19.4353 4.7703 20.9482 5.39887 22.0641 6.51632C23.18 7.63377 23.8077 9.14885 23.8095 10.7292V12.5174C23.8083 13.6236 23.3689 14.6841 22.5878 15.4664C21.8066 16.2486 20.7475 16.6886 19.6429 16.6898H13.3344C11.5165 16.6868 9.74974 16.0868 8.30505 14.9818C6.86035 13.8768 5.81743 12.3278 5.33618 10.5724L4.18763 10.886C4.52241 12.1092 5.09836 13.2529 5.88154 14.2497C6.66472 15.2465 7.63926 16.0762 8.74772 16.6898H5.35714C4.25246 16.6886 3.19337 16.2486 2.41224 15.4664C1.63111 14.6841 1.19172 13.6236 1.19048 12.5174V11.4742Z" fill="#A2101A"/>
</svg>
