<svg width="68" height="65" viewBox="0 0 68 65" fill="none" xmlns="http://www.w3.org/2000/svg">
<path d="M64.3913 19.1216H52.8599C50.8699 19.1216 49.2509 20.7414 49.2509 22.7325V36.0051H44.9377C45.1774 35.1337 45.2663 34.1059 45.208 32.9097V32.9096C45.1143 27.8549 44.1971 23.5948 42.4816 20.2476C41.1495 17.6489 39.5949 16.0908 38.2609 15.1594C39.8266 13.5496 40.7319 11.2595 40.7319 8.61824C40.7319 3.86605 36.941 0 32.2815 0C27.6221 0 23.8312 3.86605 23.8312 8.61824C23.8312 9.16848 24.2772 9.61433 24.8273 9.61433H25.5041C25.4418 9.9902 25.4086 10.3732 25.4086 10.7622C25.4086 14.1112 27.8016 16.9103 30.9655 17.5376C30.6339 18.769 30.469 20.221 30.4697 21.8706L27.9853 24.0074L21.9403 24.4963L14.9672 22.1912C14.3281 21.9787 13.6038 21.7386 12.9753 22.1917C12.356 22.6386 12.356 23.421 12.356 23.678V28.8624C12.356 29.4126 12.802 29.8585 13.3521 29.8585H14.538L12.7191 36.1437C12.5662 36.6721 12.8706 37.2246 13.3991 37.3774C13.9278 37.5311 14.4799 37.2259 14.6329 36.6976L16.6121 29.8585H19.444C15.9218 40.5993 17.9315 47.7689 21.0206 55.0246H19.23L11.7721 46.6858L13.3492 41.2378C13.5022 40.7093 13.1978 40.1569 12.6693 40.0041C12.1408 39.8512 11.5885 40.1556 11.4355 40.684L9.92711 45.8951C5.26192 45.8173 1.08894 49.0338 0.0255016 53.6614C-0.0976161 54.1974 0.23694 54.7318 0.77284 54.8551L2.1869 55.1805C1.82565 58.9327 4.29664 62.4729 8.06507 63.3403C8.63736 63.4721 9.21457 63.5372 9.78779 63.5372C11.2015 63.5372 12.5903 63.1409 13.8187 62.371C15.2603 61.4676 16.3345 60.1395 16.9159 58.5699L18.0316 58.8266C18.3641 58.9035 18.6794 58.9424 18.9944 58.7728C19.2875 58.615 19.4823 58.3302 19.5554 58.0086C19.6255 57.6826 19.6789 57.3512 19.716 57.0168H40.5487C41.2149 61.1588 44.7391 64.2811 48.9481 64.2811C53.1571 64.2811 56.6814 61.1588 57.3476 57.0168H58.1078C58.1078 57.0168 58.2587 57.0185 58.2931 57.0185C58.578 57.0185 58.9894 56.9869 59.3273 56.6432C59.4964 56.4712 59.6948 56.1634 59.6795 55.6746C59.6515 54.7392 59.5111 53.8354 59.2715 52.9763C60.065 48.1595 59.3015 45.2258 58.1698 42.9298C58.8853 42.4609 59.3597 41.6528 59.3597 40.7348V37.9971H64.3911C66.381 37.9971 68 36.3774 68 34.3862V22.7324C68.0003 20.7414 66.3814 19.1216 64.3913 19.1216ZM12.7608 60.6832C11.4857 61.4823 9.97692 61.7364 8.51225 61.3992H8.51212C5.81628 60.7787 4.01773 58.3066 4.14881 55.6336L14.9536 58.1204C14.5065 59.173 13.7501 60.0632 12.7608 60.6832ZM17.745 56.7166L2.25039 53.1511C3.4461 49.8767 6.66389 47.7092 10.1812 47.8957L17.7716 56.3826C17.7649 56.4945 17.7562 56.6058 17.745 56.7166ZM32.7907 39.3586C32.5016 40.1212 32.5016 41.0614 32.5016 42.3628V46.1217H28.8542V40.9648C28.8542 35.1346 32.0361 34.0956 33.4641 33.9242H43.2297C43.1904 35.2474 42.8918 36.188 42.325 36.785C41.6644 37.4806 40.534 37.8196 38.8691 37.8212L35.2936 37.8249C34.0186 37.825 33.1766 38.3409 32.7907 39.3586ZM32.5016 48.1138V50.4922C32.4926 50.4922 32.4833 50.4922 32.4737 50.4922H25.3984C25.4779 49.7545 25.7077 49.1837 26.085 48.7887C26.6463 48.2014 27.4368 48.1138 27.8581 48.1138H32.5016ZM43.1857 31.9321H34.127C33.7632 30.7874 33.4389 29.5339 33.1722 28.2456L35.9263 26.4579C37.4298 25.4816 38.2119 24.1021 38.0722 22.6729C37.9484 21.406 37.0871 20.2743 35.878 19.7899C34.7738 19.3477 33.5852 19.4866 32.5348 20.1582C32.6214 19.2054 32.7826 18.3549 33.0159 17.6329C33.4405 17.5891 33.8621 17.5061 34.2763 17.3843C35.1192 17.1885 35.8982 16.8766 36.6014 16.4628C38.5199 17.609 42.7394 21.3267 43.1857 31.9321ZM25.8963 7.62227C26.366 4.43954 29.0505 1.99233 32.2815 1.99233C35.8425 1.99233 38.7397 4.96482 38.7397 8.61837C38.7397 11.5899 37.3148 13.9849 35.0171 15.0389V9.79775C35.0171 8.89024 34.6698 7.777 33.0157 7.62639C32.9857 7.6236 32.9556 7.62227 32.9254 7.62227H25.8963ZM27.4009 10.7624C27.4009 10.3692 27.4457 9.98528 27.5337 9.61447H32.8765C32.938 9.62111 32.9829 9.62828 33.0151 9.63479C33.0202 9.67171 33.0248 9.72484 33.0248 9.79775V15.6251C32.7874 15.66 32.5486 15.6776 32.31 15.6778C32.3077 15.6778 32.3054 15.6778 32.3033 15.6778C29.5998 15.6753 27.4009 13.4712 27.4009 10.7624ZM26.1096 26.1581L28.4689 25.9672C28.6791 25.9503 28.8785 25.8671 29.0385 25.7296L33.2965 22.0673L33.2972 22.0666C33.7089 21.7119 34.1484 21.5299 34.5763 21.5299C34.7667 21.5299 34.9549 21.566 35.1373 21.6391C35.6636 21.8499 36.0374 22.3317 36.0897 22.8664C36.1554 23.5394 35.7121 24.2215 34.8418 24.7868L30.097 27.8664H26.1098V26.1581H26.1096ZM21.8999 26.4986L24.1174 26.3193V27.8667H21.5407C21.2067 27.8667 21.1252 27.5891 21.1157 27.3563C21.1102 27.2243 21.1227 26.5623 21.8999 26.4986ZM19.5424 25.8109C19.2424 26.3028 19.1022 26.8783 19.1252 27.4378C19.1312 27.5827 19.1496 27.7223 19.1754 27.8583C19.1754 27.8611 19.1738 27.8639 19.1744 27.8666H14.3485V24.085L19.5462 25.8032C19.5446 25.8058 19.5438 25.8084 19.5424 25.8109ZM21.5463 29.8588H30.3917C30.5842 29.8588 30.7726 29.803 30.934 29.6982L31.3849 29.4055C31.6018 30.3641 31.8488 31.297 32.1179 32.1781C30.0864 32.7777 26.8618 34.7156 26.8618 40.9647V46.2216C26.163 46.3626 25.3362 46.6886 24.6447 47.4123C23.9156 48.1751 23.4993 49.2088 23.3994 50.4921H21.3899C19.3651 44.6565 18.595 38.4467 21.5463 29.8588ZM23.1881 55.0212C22.8199 54.1746 22.4651 53.3311 22.1309 52.4844H32.4736C33.8141 52.4844 34.4937 51.8741 34.4937 50.6707V47.1177V43.3588H42.3561C42.9063 43.3588 43.3522 42.9129 43.3522 42.3627C43.3522 41.8125 42.9063 41.3666 42.3561 41.3666H34.5008C34.5136 40.8008 34.5498 40.3381 34.6536 40.0648C34.7039 39.9318 34.7475 39.8171 35.2945 39.8171L38.8709 39.8134C41.1108 39.8112 42.7132 39.2694 43.7697 38.1566C43.8186 38.1051 43.8648 38.0511 43.9112 37.9973H50.2472H57.3679V40.735C57.3679 41.0773 57.0793 41.3666 56.7377 41.3666H46.8212C46.271 41.3666 45.8251 41.8125 45.8251 42.3627C45.8251 42.9129 46.271 43.3588 46.8212 43.3588H56.1524C56.9397 44.8201 57.6479 46.6385 57.6058 49.5114C55.6351 46.774 52.4448 45.0138 48.8241 45.0138C45.9162 45.0138 43.1877 46.1544 41.141 48.2256C39.3247 50.0633 38.2339 52.4485 38.0095 55.0246L23.1881 55.0212ZM48.9482 62.2892C45.8343 62.2892 43.2081 60.0456 42.5727 57.017H55.3238C54.6883 60.0453 52.062 62.2892 48.9482 62.2892ZM56.4554 55.0248H41.4414H40.0103C40.4993 50.5207 44.2654 47.006 48.8241 47.006C52.8264 47.006 56.1875 49.6451 57.3006 53.3396C57.3042 53.3513 57.3078 53.3629 57.3117 53.3745C57.4691 53.9046 57.5803 54.4563 57.6405 55.0248H56.4554ZM66.0081 34.3864C66.0081 35.279 65.2828 36.0051 64.3913 36.0051H51.2431V30.8611H66.0081V34.3864ZM66.0081 28.8689H51.2431V26.7504H66.0081V28.8689ZM66.0081 24.7582H51.2431V22.7325C51.2431 21.8399 51.9684 21.1138 52.8599 21.1138H64.3913C65.2828 21.1138 66.0081 21.84 66.0081 22.7325V24.7582Z" fill="#F9F3F3"/>
</svg>
