<svg width="203" height="207" viewBox="0 0 203 207" fill="none" xmlns="http://www.w3.org/2000/svg">
<path d="M96.2694 0.69902C88.3498 2.77022 76.6001 10.2631 76.6001 13.248C76.6001 15.0756 77.9633 14.6491 81.7933 11.6642C88.2199 6.66894 97.1133 2.83113 102.242 2.83113C104.579 2.83113 105.552 3.19664 106.916 4.41499C108.409 5.81609 108.538 6.30344 108.279 9.41023C108.019 12.2124 107.37 13.7963 105.033 17.4514C103.345 19.949 100.164 25.0051 97.8923 28.6602C93.543 35.7875 90.1025 39.5644 88.4147 39.2598C86.7918 38.9552 86.7269 36.8841 88.2849 29.2084C90.6218 17.6341 90.3622 15.6847 86.5321 15.6238C84.1952 15.6238 82.7021 19.3398 80.2354 31.2187C76.2106 50.8951 75.7562 58.9362 78.4826 61.4948C79.6511 62.5913 79.716 62.5913 81.0143 61.312C81.7933 60.5201 82.5074 58.6925 82.7671 56.8041C83.4162 52.2962 85.3637 49.0676 89.9727 44.8643C96.4642 39.0162 102.826 37.0668 106.137 39.9908C109.382 42.854 107.695 48.763 100.749 58.4489C97.6327 62.774 93.4781 66.7946 92.1149 66.7946C91.7903 66.7946 90.8815 65.8199 90.1674 64.6625C88.6744 62.3476 87.6357 62.043 86.0777 63.505C84.1303 65.2716 85.4286 70.2669 88.2199 71.668C91.7254 73.3737 95.3606 71.6071 101.593 65.0889C107.824 58.5098 112.628 49.8595 112.628 45.2298C112.563 43.3413 112.109 41.392 111.395 40.2954C109.772 37.7369 105.942 35.1174 103.865 35.1174C102.956 35.1174 101.657 34.7519 101.008 34.3255C99.9047 33.5336 99.9047 33.4118 100.878 31.5842C101.463 30.4877 103.605 27.2591 105.617 24.396C109.512 18.7306 112.304 12.3343 112.239 8.92289C112.239 6.1816 110.551 2.95297 108.279 1.43003C106.007 -0.153824 100.684 -0.458412 96.2694 0.69902Z" fill="#A2101A"/>
<path d="M55.178 62.774C55.178 64.1142 56.2166 64.4797 58.7483 63.9924C62.1888 63.3832 61.7344 61.9211 58.0992 61.9211C55.957 61.9211 55.178 62.1648 55.178 62.774Z" fill="#A2101A"/>
<path d="M134.505 62.9567C134.894 64.8451 140.217 64.7233 140.217 62.8349C140.217 62.1648 139.438 61.9211 137.231 61.9211C134.764 61.9211 134.31 62.1039 134.505 62.9567Z" fill="#A2101A"/>
<path d="M63.617 87.3238C61.7994 87.9329 59.5274 90.2478 56.4114 94.6339L53.3604 99.0808L52.906 96.4614C52.3867 93.4764 51.6077 92.3799 49.9199 92.3799C48.4917 92.3799 48.4268 92.6236 49.4006 94.0856C50.1146 95.1821 49.2058 101.457 47.4531 107.914C47.0636 109.254 46.739 113.457 46.6741 117.295C46.5443 123.387 46.6741 124.362 47.7128 125.093C48.4268 125.519 49.1409 125.885 49.4655 125.885C50.6989 125.885 51.8673 122.778 52.1919 118.757C52.7112 112.3 53.1007 111.203 54.7885 111.569C55.8272 111.874 56.736 111.264 58.7484 108.828C62.3836 104.503 64.5258 103.345 68.1611 103.771C69.784 103.954 71.277 104.442 71.5367 104.807C72.3806 105.904 72.1209 107.609 71.1472 107.975C68.9401 108.767 63.8767 113.701 60.9555 117.904C57.0606 123.387 56.736 125.945 59.5923 128.504C62.5135 131.123 64.2013 130.697 68.4208 126.433C73.614 121.194 75.3018 117.661 75.3018 112.056C75.3018 107.67 75.3667 107.548 77.2492 106.513C79.5862 105.294 79.7809 103.954 77.7037 103.954C76.8598 103.954 75.8211 104.32 75.3667 104.685C74.7175 105.234 74.393 105.294 74.1982 104.807C73.4192 102.797 71.9911 101.883 69.2647 101.578L66.2786 101.213L68.226 97.5579C69.7191 94.7557 70.1086 93.3546 69.8489 91.588C69.3945 87.8111 66.9926 86.1663 63.617 87.3238ZM66.9926 91.8317C67.1225 93.1718 66.9926 94.3902 66.7979 94.5729C66.5382 94.6948 66.0838 95.7304 65.8891 96.8269C65.5645 98.1671 63.8118 100.238 59.8519 103.771C54.2043 108.889 52.8411 109.741 53.5551 107.67C53.7499 107 54.0095 105.294 54.1394 103.832C54.2692 101.213 55.957 98.1671 59.9818 93.2937C62.5784 90.126 63.617 89.395 65.3048 89.334C66.4733 89.334 66.7979 89.7605 66.9926 91.8317ZM70.498 116.686C69.0699 120.767 66.3435 125.154 64.4609 126.311C63.0328 127.225 62.7731 127.225 61.8643 126.311C61.2152 125.763 61.0204 124.849 61.2152 123.935C61.8643 121.559 66.9277 114.127 69.0699 112.361L71.0823 110.777L71.277 112.3C71.4069 113.153 71.0823 115.102 70.498 116.686Z" fill="#A2101A"/>
<path d="M85.4286 89.2122C83.6759 91.8926 82.8969 125.641 84.4549 128.504C86.2076 131.55 88.2849 130.758 88.2849 127.103C88.2849 125.885 88.4797 123.143 88.6744 121.133L89.1288 117.356L92.9588 120.889C97.5029 125.093 99.9048 126.189 102.177 125.154C103.8 124.483 103.8 124.483 100.424 122.595C98.0222 121.255 96.4643 119.732 94.9712 117.356C93.8027 115.529 92.829 113.64 92.829 113.092C92.829 112.544 95.166 109.802 98.0222 107.061C100.879 104.259 103.215 101.7 103.215 101.396C103.215 101.091 104.124 99.7509 105.228 98.4716C106.721 96.766 107.11 95.7913 106.786 94.8166C106.202 93.05 103.8 93.4155 102.761 95.4258C101.398 97.9843 98.2819 101.639 92.9588 106.939C91.1412 108.767 89.9727 109.437 89.1937 109.193C88.2849 108.889 88.1551 108.218 88.5446 104.685C88.7393 102.431 89.3885 98.7153 89.9078 96.4614C90.9465 91.7098 90.7517 90.857 88.22 89.6386C86.0778 88.603 85.8831 88.5421 85.4286 89.2122Z" fill="#A2101A"/>
<path d="M148.591 89.7605C146.968 91.6489 145.086 94.4511 144.177 96.3396C143.722 97.3142 143.073 98.5935 142.749 99.0809C140.671 102.309 139.373 106.269 138.464 111.813C137.296 119.366 137.945 122.412 141.385 126.006C143.138 127.834 144.112 128.321 145.8 128.321C148.591 128.321 152.551 125.032 154.823 120.828C155.732 119.245 157.225 116.93 158.134 115.772C159.757 113.823 163.067 108.218 162.678 108.218C162.548 108.218 159.757 111.63 156.511 115.833C149.954 124.179 147.812 125.824 145.54 124.301C144.761 123.813 143.852 122.412 143.463 121.133C142.619 118.148 142.619 109.802 143.528 106.696C144.372 103.772 148.331 96.1568 149.824 94.6339C151.382 92.9891 152.811 93.5983 153.2 96.035L153.59 98.1671L154.693 96.2177C156.446 93.1109 156.186 90.7351 153.849 89.6386C151.382 88.4203 149.695 88.4812 148.591 89.7605Z" fill="#A2101A"/>
<path d="M130.87 89.8214C130.285 90.7351 124.638 104.563 124.638 105.112C124.638 105.416 124.248 105.965 123.794 106.33C122.625 107.183 121.522 106.025 118.99 101.213C114.965 93.6592 112.693 90.5524 111.07 90.5524C108.863 90.6133 109.188 91.8926 113.667 100.665C116.199 105.66 118.86 110.351 119.509 111.143C120.873 112.787 120.483 114.188 117.562 118.148C114.576 122.169 113.278 123.204 110.097 124.118C108.474 124.544 107.111 125.154 107.111 125.336C107.111 125.58 106.981 126.128 106.786 126.616C106.591 127.042 107.435 128.017 108.669 128.809L110.941 130.271L113.862 128.626C117.043 126.859 122.82 121.316 124.378 118.514C124.897 117.539 125.611 116.747 125.871 116.747C126.196 116.747 126.975 115.468 127.624 113.823C128.208 112.239 128.987 110.716 129.312 110.351C129.571 110.046 129.831 109.254 129.831 108.645C129.831 108.036 130.35 105.66 131.064 103.467C131.713 101.213 132.622 97.9843 133.077 96.3395C133.531 94.6339 133.986 92.8672 134.18 92.319C134.635 90.7351 131.778 88.5421 130.87 89.8214Z" fill="#A2101A"/>
<path d="M160.86 137.885C157.874 140.078 155.667 142.576 153.59 146.231C151.772 149.399 151.577 149.277 150.733 144.769C150.344 142.576 149.954 141.967 148.786 141.845C147.488 141.662 147.423 141.784 147.747 144.282C148.007 145.926 147.747 148.485 147.098 150.922C145.8 155.491 144.372 170.659 144.956 172.913C145.475 174.74 147.877 175.593 149.24 174.375C149.76 173.888 150.344 171.146 150.669 167.796C151.512 159.633 151.642 159.206 153.2 160.12C154.304 160.79 154.953 160.364 158.978 156.77C163.002 153.115 163.716 152.688 166.053 152.688C168.066 152.688 168.975 153.054 169.689 154.028C170.662 155.308 170.533 155.551 166.313 159.389C160.536 164.689 157.55 169.38 157.225 174.07C156.965 177.543 156.965 177.604 159.108 178.822C161.185 179.979 161.315 180.04 163.002 179.005C168.066 175.959 173.324 165.786 173.324 159.085C173.324 158.11 173.973 157.196 175.142 156.526C178.387 154.577 178.452 152.932 175.207 153.602C173.713 153.907 172.87 153.663 171.312 152.445C169.948 151.348 168.585 150.861 166.768 150.861C165.404 150.861 164.236 150.739 164.236 150.678C164.236 150.556 165.08 148.972 166.183 147.145C167.222 145.317 168.131 143.124 168.131 142.271C168.131 139.591 166.832 136.972 165.339 136.606C163.327 136.119 163.392 136.058 160.86 137.885ZM164.755 140.809C164.885 141.784 164.82 143.733 164.56 145.195C164.106 147.998 162.808 149.521 155.602 155.491L151.837 158.658L152.162 154.638C152.551 150.617 153.395 148.972 158.199 142.759C160.016 140.383 162.678 138.555 163.911 138.921C164.301 138.982 164.69 139.835 164.755 140.809ZM168.91 165.907C168.196 167.187 167.417 169.075 167.222 170.111C166.183 174.558 160.406 178.335 159.367 175.228C158.523 172.669 164.431 163.349 168.131 161.521C169.624 160.79 169.754 160.79 169.948 162.131C170.078 162.922 169.559 164.628 168.91 165.907Z" fill="#A2101A"/>
<path d="M102.501 139.408C98.9958 142.941 93.8675 151.592 93.2183 155.308C92.5043 159.085 92.1797 168.04 92.699 170.172C92.9587 171.268 94.1921 173.4 95.4254 174.923C97.3729 177.238 98.0221 177.604 100.164 177.664C102.242 177.664 103.085 177.238 105.357 174.984C106.851 173.522 108.993 170.903 110.031 169.136C111.135 167.43 112.563 165.237 113.342 164.384C114.705 162.74 116.848 158.719 116.848 157.805C116.848 156.953 114.446 159.755 113.342 161.887C112.758 163.044 111.005 165.481 109.382 167.309C107.759 169.136 106.461 170.903 106.461 171.268C106.461 172.121 102.696 174.009 100.943 174.009C100.034 174.009 98.9958 173.339 98.2817 172.304C97.308 170.964 97.1132 169.441 97.1782 163.227C97.2431 158.11 97.5677 155.308 98.2168 154.089C98.7361 153.176 99.3853 151.47 99.6449 150.373C99.9046 149.277 101.463 147.023 103.28 145.195C106.721 141.784 107.694 141.845 107.759 145.683C107.824 147.328 107.889 147.388 108.668 146.414C110.226 144.525 110.551 140.505 109.317 139.226C107.759 137.581 104.254 137.703 102.501 139.408Z" fill="#A2101A"/>
<path d="M21.7466 141.053C21.4221 142.028 20.8378 142.15 16.8131 141.967C12.3988 141.784 12.2041 141.784 9.7373 143.916C6.75119 146.475 5.58272 149.642 6.16696 153.541C6.94594 158.293 9.67239 159.877 16.099 159.389C17.2675 159.328 17.5271 159.633 17.5271 161.034C17.5271 162.009 17.1376 163.288 16.6832 163.897C15.8393 164.933 15.7095 164.933 13.7621 164.019C11.49 162.922 8.17933 162.74 5.45289 163.653C3.18085 164.384 0 169.319 0 172.121C0 177.725 6.16696 182.842 10.3215 180.71C11.5549 180.101 15.9043 174.984 17.8517 171.877C18.5009 170.842 18.8254 170.903 22.8502 172.365C29.7312 174.984 33.4963 174.375 35.7683 170.233C37.2614 167.43 37.3263 163.593 35.8982 158.719C34.5999 154.333 34.9244 153.907 39.7931 153.907H42.8441V163.714C42.8441 169.258 43.1038 174.009 43.4933 174.68C44.1424 175.715 44.9214 175.837 52.6463 175.837C59.787 175.837 61.1502 175.715 61.4748 174.862C62.124 173.218 60.3063 172.73 54.5289 172.913L49.0111 173.096L48.6865 170.903C48.4268 169.745 48.297 166.821 48.297 164.506L48.3619 160.303L51.7375 159.998C57.4501 159.45 58.2291 156.953 52.7113 156.953C51.0235 156.953 49.2707 156.709 48.8163 156.404C48.2321 156.1 47.8426 153.907 47.5829 150.008L47.1935 144.16H51.7375C58.8782 144.16 62.2538 144.769 62.6433 146.048C63.2275 147.754 66.6681 149.216 68.7453 148.668C71.342 147.998 71.6016 147.937 73.6789 147.51L75.6913 147.084L75.6264 160.12C75.6264 170.537 75.8211 173.461 76.6001 174.923C77.8984 177.299 80.3003 177.482 79.9757 175.228C79.3915 170.842 80.1055 149.642 80.8845 147.023C81.3389 145.683 83.3513 144.891 89.1937 143.855C93.8676 143.002 95.2308 142.271 94.4518 141.114C93.9325 140.383 93.2184 140.383 80.8196 141.479C78.3528 141.723 76.0808 142.15 75.886 142.454C75.4965 143.063 69.4594 144.647 66.8628 144.769C63.6819 145.013 62.9679 144.769 62.9679 143.551C62.9679 141.723 61.345 141.297 52.3867 140.931L44.0775 140.627L43.4284 142.15C43.1038 142.941 42.8441 145.378 42.8441 147.51V151.348L38.1702 151.592C33.6911 151.835 33.3665 151.775 32.1331 150.312C31.419 149.46 29.4716 147.388 27.7838 145.805C25.7714 143.916 24.6678 142.332 24.6678 141.358C24.6678 139.591 22.3958 139.286 21.7466 141.053ZM20.6431 146.292C20.708 147.267 20.3834 149.886 19.929 152.018C19.15 155.49 18.8254 156.039 17.3324 156.404C15.2551 156.953 11.0356 156.1 10.2566 155.003C8.95832 153.054 8.95832 151.287 10.3865 148.85C12.5936 144.952 14.0217 144.099 17.4622 144.282C20.2536 144.464 20.4483 144.586 20.6431 146.292ZM27.0697 149.155C27.9136 149.886 28.5627 151.165 28.5627 152.14C28.5627 153.602 28.1733 153.968 26.4855 154.394C25.317 154.699 24.1485 154.82 23.8888 154.699C23.3046 154.394 23.2397 151.104 23.759 149.155C24.2783 147.449 25.1222 147.449 27.0697 149.155ZM31.6787 157.257C32.6524 159.206 32.7173 167.552 31.8085 169.197C31.2243 170.172 30.64 170.293 28.4329 170.05C27.0048 169.867 24.4731 169.197 22.9151 168.527C20.0588 167.369 19.9939 167.248 20.4483 165.115C21.1624 161.399 22.3309 158.597 23.3695 158.171C29.5365 155.369 30.705 155.247 31.6787 157.257ZM12.8532 166.699C15.32 168.161 15.3849 168.892 13.3076 172.73C10.7759 177.482 6.62136 179.675 4.60899 177.421C2.66153 175.167 2.98611 168.771 5.25814 166.638C6.88103 165.115 10.1268 165.115 12.8532 166.699Z" fill="#A2101A"/>
<path d="M190.656 141.175C189.034 143.307 185.139 152.749 183.646 157.988C182.737 161.278 181.958 163.044 181.374 163.044C180.335 163.044 180.335 162.922 180.14 167.613C180.01 169.623 179.491 172.304 178.907 173.522C177.414 176.812 177.544 178.396 179.231 178.152C180.4 178.03 180.919 177.055 182.217 173.096C183.061 170.415 184.1 167.918 184.554 167.552C185.593 166.638 193.967 164.567 194.551 165.055C194.746 165.298 195.33 167.979 195.85 171.085C196.694 176.385 197.927 179.492 199.225 179.492C199.55 179.492 200.459 179.005 201.303 178.335L202.796 177.238L201.367 171.634C200.588 168.588 199.939 165.42 199.939 164.506C199.939 163.653 199.615 162.374 199.16 161.643C198.771 160.912 198.187 158.232 197.927 155.734C197.083 147.693 196.109 141.114 195.72 140.505C195.006 139.408 191.63 139.835 190.656 141.175ZM192.474 149.764C193.188 152.932 193.967 160.181 193.707 160.912C193.318 161.765 187.151 162.862 186.502 162.191C185.982 161.765 187.411 156.709 188.839 153.663C189.488 152.262 190.267 150.556 190.462 149.764C190.721 149.033 191.176 148.424 191.5 148.424C191.89 148.424 192.279 149.033 192.474 149.764Z" fill="#A2101A"/>
<path d="M132.427 141.175C130.804 141.479 128.662 141.601 127.624 141.419C126.325 141.236 125.546 141.419 124.962 142.15C123.988 143.368 118.471 144.708 114.446 144.769C111.395 144.769 110.81 145.744 112.823 147.328C114.77 148.972 116.718 149.155 120.483 148.119C122.495 147.571 124.313 147.267 124.508 147.449C124.702 147.693 124.832 152.566 124.767 158.354C124.637 171.024 125.481 176.02 127.818 176.324C129.246 176.568 129.311 176.385 128.987 174.192C128.532 171.573 129.506 148.059 130.09 146.597C130.35 145.987 132.557 145.256 135.868 144.525C138.789 143.916 141.71 143.246 142.359 143.124C143.009 142.942 143.463 142.393 143.333 141.845C143.138 141.053 142.294 140.809 139.243 140.688C137.101 140.627 134.05 140.87 132.427 141.175Z" fill="#A2101A"/>
<path d="M55.8271 205.687C55.8271 206.905 56.2816 206.905 98.0221 206.905C139.763 206.905 140.217 206.905 140.217 205.687C140.217 204.468 139.763 204.468 98.0221 204.468C56.2816 204.468 55.8271 204.468 55.8271 205.687Z" fill="#A2101A"/>
</svg>
