<svg width="32" height="28" viewBox="0 0 32 28" fill="none" xmlns="http://www.w3.org/2000/svg">
<path d="M3.0143 15.2786L4.79578 24.0199C4.98965 24.9584 5.50062 25.8016 6.24285 26.4077C6.98508 27.0139 7.91333 27.3462 8.87164 27.3487H23.0324C23.9907 27.3463 24.919 27.0143 25.6614 26.4083C26.4038 25.8023 26.915 24.9593 27.1092 24.0208L28.8853 15.3088C29.7819 15.0636 30.5728 14.5299 31.1358 13.7902C31.6988 13.0506 32.0025 12.1461 32 11.2165C31.9975 10.287 31.689 9.38415 31.122 8.64751C30.5551 7.91086 29.7614 7.38143 28.8635 7.14101C26.6656 2.79379 21.6506 0 15.9982 0C10.3458 0 5.32984 2.79379 3.13394 7.14133C2.24506 7.37982 1.45821 7.90169 0.892732 8.62778C0.32725 9.35387 0.0139873 10.2446 0.000457425 11.1648C-0.0130725 12.085 0.273869 12.9845 0.817759 13.7269C1.36165 14.4693 2.13282 15.0141 3.0143 15.2786ZM26.0081 23.7966C25.8665 24.4818 25.4934 25.0973 24.9515 25.5399C24.4097 25.9824 23.732 26.2251 23.0324 26.227H8.87164C8.17196 26.2251 7.49424 25.9825 6.95232 25.54C6.4104 25.0974 6.03728 24.4818 5.89566 23.7966L4.19564 15.457H4.22932C5.32872 15.4621 6.38581 15.0336 7.17131 14.2644C7.95981 15.0292 9.01513 15.4569 10.1136 15.4569C11.2121 15.4569 12.2674 15.0292 13.0559 14.2644C13.8443 15.0292 14.8995 15.457 15.9979 15.457C17.0963 15.457 18.1515 15.0292 18.9399 14.2644C19.7284 15.0292 20.7837 15.4569 21.8822 15.4569C22.9807 15.4569 24.036 15.0292 24.8245 14.2644C25.5957 15.0192 26.6294 15.4456 27.7084 15.4541L26.0081 23.7966ZM3.62983 8.1777C3.71579 8.16069 3.79659 8.12381 3.86576 8.07001C3.93493 8.01621 3.99056 7.94698 4.02821 7.86785C5.97135 3.77018 10.6714 1.12265 15.9982 1.12265C21.325 1.12265 26.0235 3.77018 27.9682 7.86913C28.0058 7.94829 28.0615 8.01755 28.1306 8.07135C28.1998 8.12516 28.2806 8.16202 28.3666 8.17898C29.0781 8.31857 29.7184 8.7025 30.1767 9.26433C30.635 9.82617 30.8825 10.5305 30.8763 11.2556C30.8701 11.9806 30.6106 12.6806 30.1427 13.2345C29.6749 13.7885 29.0281 14.1614 28.3143 14.2888C28.1334 14.3193 27.9503 14.3351 27.7668 14.3359C27.2821 14.3381 26.8038 14.2255 26.371 14.0074C25.9383 13.7892 25.5633 13.4717 25.2768 13.0808C25.2246 13.0104 25.1566 12.9531 25.0784 12.9136C25.0001 12.8741 24.9137 12.8535 24.8261 12.8534C24.7389 12.8533 24.653 12.8736 24.575 12.9125C24.4971 12.9515 24.4293 13.0081 24.377 13.0779C24.0887 13.4676 23.7129 13.7843 23.28 14.0024C22.8471 14.2206 22.3691 14.3343 21.8843 14.3343C21.3995 14.3343 20.9214 14.2206 20.4885 14.0024C20.0556 13.7843 19.6799 13.4676 19.3915 13.0779C19.3392 13.0082 19.2714 12.9516 19.1935 12.9126C19.1155 12.8736 19.0296 12.8533 18.9424 12.8534C18.8551 12.8537 18.769 12.8744 18.691 12.9139C18.613 12.9534 18.5454 13.0105 18.4934 13.0808C18.2053 13.4701 17.83 13.7864 17.3975 14.0044C16.965 14.2224 16.4875 14.3359 16.0032 14.3359C15.5189 14.3359 15.0413 14.2224 14.6089 14.0044C14.1764 13.7864 13.8011 13.4701 13.513 13.0808C13.461 13.0106 13.3933 12.9534 13.3154 12.914C13.2374 12.8745 13.1513 12.8537 13.0639 12.8534C12.9768 12.8533 12.8908 12.8736 12.8129 12.9126C12.7349 12.9516 12.6671 13.0082 12.6149 13.0779C12.3265 13.4676 11.9508 13.7843 11.5179 14.0024C11.0849 14.2206 10.6069 14.3343 10.1221 14.3343C9.63732 14.3343 9.15928 14.2206 8.72637 14.0024C8.29345 13.7843 7.91773 13.4676 7.62935 13.0779C7.57708 13.0082 7.50928 12.9516 7.43134 12.9126C7.35339 12.8736 7.26743 12.8533 7.18029 12.8534C7.0929 12.8537 7.0068 12.8744 6.92884 12.9139C6.85088 12.9534 6.78321 13.0105 6.73123 13.0808C6.44463 13.4717 6.06958 13.7892 5.63674 14.0073C5.2039 14.2255 4.72557 14.3381 4.24087 14.3359C4.03079 14.3369 3.82121 14.3154 3.61572 14.2718C2.91223 14.1278 2.28031 13.7447 1.82746 13.1874C1.37462 12.6302 1.1288 11.9332 1.13182 11.2152C1.13485 10.4971 1.38653 9.80229 1.84405 9.24887C2.30158 8.69544 2.9367 8.3176 3.64138 8.17962L3.62983 8.1777Z" fill="#A2101A"/>
<path d="M16.043 16.8824C15.8942 16.8825 15.7514 16.9417 15.6462 17.0469C15.5409 17.1522 15.4818 17.2949 15.4817 17.4437V23.4846C15.4817 23.6334 15.5408 23.7762 15.6461 23.8815C15.7514 23.9867 15.8941 24.0459 16.043 24.0459C16.1919 24.0459 16.3347 23.9867 16.4399 23.8815C16.5452 23.7762 16.6043 23.6334 16.6043 23.4846V17.4437C16.6043 17.2949 16.5451 17.1522 16.4398 17.0469C16.3346 16.9417 16.1919 16.8825 16.043 16.8824Z" fill="#A2101A"/>
<path d="M12.3764 17.3651C12.3553 17.2176 12.2765 17.0844 12.1573 16.995C12.0381 16.9055 11.8882 16.8671 11.7407 16.8882C11.5931 16.9092 11.46 16.988 11.3705 17.1073C11.2811 17.2265 11.2426 17.3764 11.2637 17.5239L12.1179 23.5651C12.1371 23.6986 12.2039 23.8207 12.3058 23.9091C12.4078 23.9974 12.5382 24.0461 12.6731 24.0462C12.6996 24.0463 12.7261 24.0444 12.7523 24.0407C12.8253 24.0304 12.8956 24.0058 12.9591 23.9684C13.0226 23.9309 13.0781 23.8813 13.1224 23.8224C13.1667 23.7635 13.199 23.6964 13.2174 23.625C13.2358 23.5536 13.2399 23.4793 13.2296 23.4063L12.3764 17.3651Z" fill="#A2101A"/>
<path d="M8.49485 17.3334C8.46558 17.1874 8.37953 17.059 8.25561 16.9765C8.13169 16.894 7.98007 16.864 7.83409 16.8933C7.68811 16.9226 7.55973 17.0086 7.4772 17.1325C7.39467 17.2565 7.36475 17.4081 7.39401 17.5541L8.60615 23.5952C8.63169 23.7223 8.70038 23.8366 8.80058 23.9188C8.90078 24.001 9.02633 24.046 9.15593 24.0462C9.19321 24.0462 9.23039 24.0425 9.26691 24.035C9.33919 24.0205 9.40792 23.9919 9.46916 23.9508C9.53039 23.9098 9.58295 23.8571 9.62381 23.7957C9.66468 23.7344 9.69306 23.6656 9.70733 23.5932C9.7216 23.5209 9.72148 23.4465 9.70699 23.3742L8.49485 17.3334Z" fill="#A2101A"/>
<path d="M20.2994 16.8878C20.2264 16.8775 20.1521 16.8816 20.0807 16.9C20.0093 16.9183 19.9422 16.9506 19.8832 16.995C19.8243 17.0393 19.7747 17.0948 19.7373 17.1583C19.6998 17.2218 19.6752 17.2921 19.665 17.3651L18.8105 23.4059C18.8001 23.4789 18.8043 23.5533 18.8227 23.6247C18.8411 23.6961 18.8734 23.7631 18.9177 23.822C18.962 23.881 19.0175 23.9306 19.081 23.968C19.1445 24.0055 19.2148 24.0301 19.2878 24.0404C19.314 24.0441 19.3405 24.0459 19.367 24.0459C19.5019 24.0458 19.6323 23.9971 19.7342 23.9087C19.8362 23.8204 19.9029 23.6983 19.9222 23.5647L20.7764 17.5239C20.787 17.4508 20.7831 17.3763 20.7648 17.3047C20.7465 17.2332 20.7143 17.1659 20.67 17.1068C20.6257 17.0477 20.5702 16.9979 20.5066 16.9604C20.443 16.9228 20.3726 16.8981 20.2994 16.8878Z" fill="#A2101A"/>
<path d="M24.2074 16.8933C24.1351 16.8788 24.0607 16.8787 23.9883 16.893C23.916 16.9072 23.8472 16.9356 23.7858 16.9765C23.7245 17.0174 23.6718 17.0699 23.6307 17.1311C23.5897 17.1924 23.5611 17.2611 23.5466 17.3334L22.3345 23.3742C22.3052 23.5201 22.3351 23.6717 22.4175 23.7956C22.5 23.9196 22.6283 24.0056 22.7742 24.035C22.8108 24.0425 22.8481 24.0462 22.8855 24.0462C23.0151 24.0459 23.1405 24.0009 23.2407 23.9187C23.3408 23.8365 23.4095 23.7222 23.435 23.5952L24.6471 17.5541C24.6764 17.4081 24.6465 17.2565 24.5641 17.1326C24.4816 17.0087 24.3533 16.9226 24.2074 16.8933Z" fill="#A2101A"/>
</svg>
