<svg width="120" height="120" viewBox="0 0 120 120" fill="none" xmlns="http://www.w3.org/2000/svg">
<path d="M91.126 58.348L47.126 28.348C46.512 27.932 45.72 27.886 45.064 28.232C44.41 28.578 44 29.258 44 30V90C44 90.742 44.41 91.4219 45.066 91.7679C45.358 91.9239 45.68 92 46 92C46.394 92 46.788 91.882 47.126 91.652L91.126 61.652C91.672 61.2799 92 60.662 92 60C92 59.338 91.672 58.72 91.126 58.348ZM48 86.2139V33.786L86.45 60L48 86.2139Z" fill="#F9F3F3"/>
<path d="M60 0C26.916 0 0 26.916 0 60C0 93.084 26.916 120 60 120C93.084 120 120 93.084 120 60C120 26.916 93.084 0 60 0ZM60 116C29.122 116 4 90.878 4 60C4 29.122 29.122 4 60 4C90.878 4 116 29.122 116 60C116 90.878 90.878 116 60 116Z" fill="#F9F3F3"/>
</svg>
